<svg width="1280" height="591" viewBox="0 0 1280 591" fill="none" xmlns="http://www.w3.org/2000/svg">
<path d="M-7.19024 165.681L-8.57513 164.954L-8.57862 164.961L-8.58205 164.968L-7.19024 165.681ZM29.1215 127.881L29.8955 129.24L29.9019 129.236L29.9083 129.232L29.1215 127.881ZM133.294 124.607L132.611 126.013L132.622 126.019L132.634 126.024L133.294 124.607ZM168.416 153.478L167.143 154.386L167.148 154.393L167.153 154.4L168.416 153.478ZM186.572 197.23V198.794H188.439L188.111 196.955L186.572 197.23ZM116.924 197.23L115.502 197.88L115.92 198.794H116.924V197.23ZM103.233 181.158L102.345 182.445L102.371 182.463L102.396 182.479L103.233 181.158ZM56.8017 187.706L55.5721 186.74L55.5649 186.749L55.5579 186.758L56.8017 187.706ZM56.8017 254.972L55.5579 255.92L55.5649 255.929L55.5721 255.938L56.8017 254.972ZM103.233 261.817L104.09 263.126L104.101 263.119L103.233 261.817ZM116.924 245.447V243.884H115.92L115.502 244.797L116.924 245.447ZM186.572 245.447L188.111 245.722L188.439 243.884H186.572V245.447ZM168.416 289.2L167.153 288.278L167.148 288.285L167.143 288.291L168.416 289.2ZM133.294 318.369L133.962 319.783L133.971 319.779L133.294 318.369ZM29.1215 315.095L28.3346 316.446L28.341 316.45L28.3475 316.453L29.1215 315.095ZM-7.19024 276.997L-8.58205 277.71L-8.57862 277.717L-8.57513 277.723L-7.19024 276.997ZM-18.1273 221.339C-18.1273 200.717 -14.0044 182.415 -5.79844 166.394L-8.58205 164.968C-17.0438 181.488 -21.2548 200.291 -21.2548 221.339H-18.1273ZM-5.80536 166.407C2.59068 150.396 14.4849 138.018 29.8955 129.24L28.3475 126.522C12.407 135.602 0.093359 148.424 -8.57513 164.954L-5.80536 166.407ZM29.9083 129.232C45.307 120.266 63.4794 115.753 84.482 115.753V112.626C63.0217 112.626 44.2871 117.241 28.3346 126.529L29.9083 129.232ZM84.482 115.753C102.536 115.753 118.567 119.186 132.611 126.013L133.978 123.2C119.449 116.138 102.939 112.626 84.482 112.626V115.753ZM132.634 126.024C146.885 132.662 158.377 142.114 167.143 154.386L169.688 152.569C160.596 139.839 148.674 130.045 133.955 123.189L132.634 126.024ZM167.153 154.4C176.127 166.691 182.094 181.049 185.032 197.505L188.111 196.955C185.097 180.076 178.959 165.266 169.679 152.555L167.153 154.4ZM186.572 195.666H116.924V198.794H186.572V195.666ZM118.347 196.58C115.057 189.384 110.3 183.783 104.07 179.837L102.396 182.479C108.072 186.073 112.442 191.187 115.502 197.88L118.347 196.58ZM104.121 179.871C98.0848 175.708 91.1225 173.641 83.2914 173.641V176.769C90.5407 176.769 96.8729 178.671 102.345 182.445L104.121 179.871ZM83.2914 173.641C71.7268 173.641 62.4329 178.008 55.5721 186.74L58.0313 188.672C64.2666 180.736 72.6326 176.769 83.2914 176.769V173.641ZM55.5579 186.758C48.9395 195.445 45.7136 207.025 45.7136 221.339H48.8411C48.8411 207.476 51.9648 196.635 58.0456 188.654L55.5579 186.758ZM45.7136 221.339C45.7136 235.652 48.9395 247.233 55.5579 255.92L58.0456 254.024C51.9648 246.043 48.8411 235.202 48.8411 221.339H45.7136ZM55.5721 255.938C62.4329 264.67 71.7268 269.036 83.2914 269.036V265.909C72.6326 265.909 64.2666 261.942 58.0313 254.006L55.5721 255.938ZM83.2914 269.036C91.1056 269.036 98.0568 267.078 104.09 263.125L102.376 260.509C96.9008 264.097 90.5576 265.909 83.2914 265.909V269.036ZM104.101 263.119C110.312 258.978 115.059 253.288 118.347 246.098L115.502 244.797C112.44 251.496 108.06 256.72 102.366 260.516L104.101 263.119ZM116.924 247.011H186.572V243.884H116.924V247.011ZM185.032 245.173C182.094 261.629 176.127 275.987 167.153 288.278L169.679 290.122C178.959 277.412 185.097 262.602 188.111 245.722L185.032 245.173ZM167.143 288.291C158.375 300.567 146.877 310.122 132.618 316.958L133.971 319.779C148.682 312.725 160.599 302.834 169.688 290.109L167.143 288.291ZM132.627 316.954C118.579 323.588 102.542 326.924 84.482 326.924V330.052C102.932 330.052 119.437 326.642 133.962 319.783L132.627 316.954ZM84.482 326.924C63.4737 326.924 45.2965 322.508 29.8955 313.736L28.3475 316.453C44.2976 325.539 63.0274 330.052 84.482 330.052V326.924ZM29.9083 313.743C14.4904 304.766 2.59218 292.285 -5.80536 276.271L-8.57513 277.723C0.0918636 294.251 12.4015 307.168 28.3346 316.446L29.9083 313.743ZM-5.79844 276.284C-14.0044 260.263 -18.1273 241.96 -18.1273 221.339H-21.2548C-21.2548 242.386 -17.0438 261.189 -8.58205 277.71L-5.79844 276.284ZM276.437 190.087H274.873V195.084L277.722 190.978L276.437 190.087ZM301.141 166.871L301.937 168.217L301.947 168.211L301.957 168.205L301.141 166.871ZM331.5 157.942H333.064V156.378H331.5V157.942ZM331.5 228.482V230.046H333.064V228.482H331.5ZM285.068 235.03L284.144 233.769L284.133 233.777L284.123 233.784L285.068 235.03ZM276.437 327V328.564H278.001V327H276.437ZM210.362 327H208.798V328.564H210.362V327ZM210.362 159.133V157.569H208.798V159.133H210.362ZM276.437 159.133H278.001V157.569H276.437V159.133ZM277.722 190.978C284.346 181.431 292.417 173.851 301.937 168.217L300.344 165.525C290.419 171.4 282.021 179.297 275.152 189.195L277.722 190.978ZM301.957 168.205C311.456 162.389 321.296 159.506 331.5 159.506V156.378C320.671 156.378 310.272 159.447 300.324 165.538L301.957 168.205ZM329.936 157.942V228.482H333.064V157.942H329.936ZM331.5 226.918H312.749V230.046H331.5V226.918ZM312.749 226.918C300.123 226.918 290.494 229.112 284.144 233.769L285.993 236.291C291.548 232.217 300.373 230.046 312.749 230.046V226.918ZM284.123 233.784C277.806 238.577 274.873 246.915 274.873 258.246H278.001C278.001 247.354 280.823 240.214 286.014 236.276L284.123 233.784ZM274.873 258.246V327H278.001V258.246H274.873ZM276.437 325.436H210.362V328.564H276.437V325.436ZM211.925 327V159.133H208.798V327H211.925ZM210.362 160.696H276.437V157.569H210.362V160.696ZM274.873 159.133V190.087H278.001V159.133H274.873ZM510.915 254.674V256.238H512.271L512.463 254.895L510.915 254.674ZM404.658 254.674V253.11H402.984L403.098 254.781L404.658 254.674ZM438.291 266.58V265.016H437.311L436.884 265.897L438.291 266.58ZM508.236 266.58L509.769 266.886L510.143 265.016H508.236V266.58ZM493.056 298.724L491.843 297.738L491.84 297.741L493.056 298.724ZM464.186 321.047L464.846 322.465L464.856 322.46L464.186 321.047ZM381.442 318.666L380.701 320.043L380.71 320.048L381.442 318.666ZM351.083 288.902L349.711 289.651L349.717 289.664L349.724 289.676L351.083 288.902ZM351.083 197.528L349.719 196.763L349.715 196.77L351.083 197.528ZM381.442 167.467L380.71 166.085L380.701 166.09L381.442 167.467ZM470.436 167.467L469.695 168.843L469.707 168.85L469.72 168.857L470.436 167.467ZM500.795 196.635L499.432 197.402L499.437 197.41L499.441 197.418L500.795 196.635ZM444.839 225.803V227.367H446.403V225.803H444.839ZM439.482 213.303L438.481 214.504L438.501 214.521L438.522 214.537L439.482 213.303ZM405.551 225.803L404.011 225.533L403.689 227.367H405.551V225.803ZM510.244 241.578C510.244 246.074 509.951 250.365 509.367 254.453L512.463 254.895C513.069 250.649 513.371 246.21 513.371 241.578H510.244ZM510.915 253.11H404.658V256.238H510.915V253.11ZM403.098 254.781C403.605 262.187 405.417 267.995 408.741 271.973C412.118 276.014 416.886 277.965 422.814 277.965V274.838C417.63 274.838 413.816 273.168 411.141 269.967C408.413 266.702 406.703 261.647 406.218 254.567L403.098 254.781ZM422.814 277.965C426.631 277.965 430.009 277.088 432.879 275.267C435.747 273.446 438.008 270.747 439.698 267.262L436.884 265.897C435.399 268.96 433.494 271.172 431.203 272.626C428.914 274.079 426.14 274.838 422.814 274.838V277.965ZM438.291 268.143H508.236V265.016H438.291V268.143ZM506.702 266.273C504.372 277.927 499.423 288.409 491.843 297.738L494.27 299.711C502.167 289.991 507.338 279.044 509.769 266.886L506.702 266.273ZM491.84 297.741C484.459 306.871 475.028 314.171 463.515 319.635L464.856 322.46C476.757 316.812 486.573 309.23 494.272 299.708L491.84 297.741ZM463.526 319.63C452.243 324.882 439.771 327.52 426.088 327.52V330.647C440.184 330.647 453.111 327.927 464.846 322.465L463.526 319.63ZM426.088 327.52C409.644 327.52 395.019 324.096 382.175 317.285L380.71 320.048C394.058 327.126 409.197 330.647 426.088 330.647V327.52ZM382.184 317.289C369.548 310.486 359.641 300.775 352.442 288.129L349.724 289.676C357.209 302.825 367.541 312.957 380.701 320.043L382.184 317.289ZM352.456 288.154C345.458 275.324 341.932 260.311 341.932 243.066H338.805C338.805 260.745 342.422 276.289 349.711 289.651L352.456 288.154ZM341.932 243.066C341.932 225.821 345.458 210.912 352.451 198.285L349.715 196.77C342.422 209.939 338.805 225.389 338.805 243.066H341.932ZM352.447 198.293C359.648 185.449 369.554 175.644 382.184 168.843L380.701 166.09C367.535 173.179 357.203 183.415 349.719 196.763L352.447 198.293ZM382.175 168.848C395.019 162.037 409.644 158.613 426.088 158.613V155.485C409.197 155.485 394.058 159.006 380.71 166.085L382.175 168.848ZM426.088 158.613C442.533 158.613 457.055 162.037 469.695 168.843L471.177 166.09C458.022 159.006 442.978 155.485 426.088 155.485V158.613ZM469.72 168.857C482.547 175.465 492.44 184.972 499.432 197.402L502.158 195.868C494.863 182.899 484.517 172.961 471.152 166.076L469.72 168.857ZM499.441 197.418C506.623 209.84 510.244 224.541 510.244 241.578H513.371C513.371 224.089 509.651 208.828 502.149 195.852L499.441 197.418ZM446.403 225.803C446.403 219.887 444.481 215.21 440.442 212.068L438.522 214.537C441.626 216.951 443.275 220.608 443.275 225.803H446.403ZM440.483 212.101C436.588 208.856 431.752 207.274 426.088 207.274V210.402C431.138 210.402 435.232 211.797 438.481 214.504L440.483 212.101ZM426.088 207.274C419.988 207.274 414.959 208.75 411.178 211.874C407.392 215.001 405.048 219.621 404.011 225.533L407.091 226.074C408.038 220.675 410.109 216.813 413.169 214.285C416.233 211.754 420.481 210.402 426.088 210.402V207.274ZM405.551 227.367H444.839V224.24H405.551V227.367ZM532.705 197.23L531.289 196.565L531.285 196.575L532.705 197.23ZM557.706 167.467L558.551 168.783L558.559 168.777L558.568 168.771L557.706 167.467ZM621.401 163.895L620.621 165.25L620.634 165.258L620.647 165.265L621.401 163.895ZM639.557 182.051L638.18 182.792L641.12 182.051H639.557ZM639.557 159.133V157.569H637.993V159.133H639.557ZM705.334 159.133H706.898V157.569H705.334V159.133ZM705.334 327V328.564H706.898V327H705.334ZM639.557 327H637.993V328.564H639.557V327ZM639.557 304.082H641.12L638.18 303.341L639.557 304.082ZM621.401 322.535L622.154 323.906L622.167 323.898L622.18 323.891L621.401 322.535ZM557.706 318.964L556.845 320.269L556.853 320.274L556.862 320.28L557.706 318.964ZM532.705 289.2L531.281 289.847L531.287 289.86L531.293 289.873L532.705 289.2ZM632.711 222.232L633.862 221.173L632.711 222.232ZM597.59 222.232L596.439 221.173L597.59 222.232ZM525.339 243.066C525.339 225.579 528.287 210.534 534.125 197.886L531.285 196.575C525.217 209.722 522.212 225.234 522.212 243.066H525.339ZM534.12 197.895C540.166 185.023 548.319 175.346 558.551 168.783L556.862 166.15C546.06 173.08 537.546 183.246 531.289 196.565L534.12 197.895ZM558.568 168.771C568.819 162.002 580.323 158.613 593.125 158.613V155.485C579.735 155.485 567.627 159.041 556.845 166.162L558.568 168.771ZM593.125 158.613C603.818 158.613 612.963 160.847 620.621 165.25L622.18 162.539C613.964 157.815 604.259 155.485 593.125 155.485V158.613ZM620.647 165.265C628.329 169.49 634.16 175.327 638.18 182.792L640.933 181.309C636.619 173.297 630.347 167.031 622.154 162.525L620.647 165.265ZM641.12 182.051V159.133H637.993V182.051H641.12ZM639.557 160.696H705.334V157.569H639.557V160.696ZM703.771 159.133V327H706.898V159.133H703.771ZM705.334 325.436H639.557V328.564H705.334V325.436ZM641.12 327V304.082H637.993V327H641.12ZM638.18 303.341C634.157 310.812 628.317 316.755 620.621 321.18L622.18 323.891C630.359 319.189 636.623 312.829 640.933 304.823L638.18 303.341ZM620.647 321.165C612.984 325.38 603.829 327.52 593.125 327.52V330.647C604.248 330.647 613.944 328.422 622.154 323.906L620.647 321.165ZM593.125 327.52C580.313 327.52 568.803 324.224 558.551 317.648L556.862 320.28C567.643 327.196 579.745 330.647 593.125 330.647V327.52ZM558.568 317.659C548.319 310.891 540.162 301.203 534.116 288.527L531.293 289.873C537.55 302.992 546.06 313.147 556.845 320.269L558.568 317.659ZM534.128 288.553C528.287 275.701 525.339 260.553 525.339 243.066H522.212C522.212 260.9 525.218 276.507 531.281 289.847L534.128 288.553ZM641.12 243.066C641.12 233.875 638.768 226.506 633.862 221.173L631.56 223.29C635.782 227.879 637.993 234.399 637.993 243.066H641.12ZM633.862 221.173C628.983 215.869 622.702 213.227 615.15 213.227V216.355C621.886 216.355 627.312 218.673 631.56 223.29L633.862 221.173ZM615.15 213.227C607.599 213.227 601.318 215.869 596.439 221.173L598.741 223.29C602.989 218.673 608.415 216.355 615.15 216.355V213.227ZM596.439 221.173C591.533 226.506 589.18 233.875 589.18 243.066H592.308C592.308 234.399 594.519 227.879 598.741 223.29L596.439 221.173ZM589.18 243.066C589.18 252.257 591.533 259.627 596.439 264.96L598.741 262.842C594.519 258.254 592.308 251.733 592.308 243.066H589.18ZM596.439 264.96C601.318 270.263 607.599 272.906 615.15 272.906V269.778C608.415 269.778 602.989 267.46 598.741 262.842L596.439 264.96ZM615.15 272.906C622.702 272.906 628.983 270.263 633.862 264.96L631.56 262.842C627.312 267.46 621.886 269.778 615.15 269.778V272.906ZM633.862 264.96C638.768 259.627 641.12 252.257 641.12 243.066H637.993C637.993 251.733 635.782 258.254 631.56 262.842L633.862 264.96ZM839.476 270.747H841.04V269.183H839.476V270.747ZM839.476 327V328.564H841.04V327H839.476ZM745.422 214.196H746.986V212.632H745.422V214.196ZM724.588 214.196H723.024V215.759H724.588V214.196ZM724.588 159.133V157.569H723.024V159.133H724.588ZM745.422 159.133V160.696H746.986V159.133H745.422ZM745.422 118.654V117.09H743.859V118.654H745.422ZM811.498 118.654H813.062V117.09H811.498V118.654ZM811.498 159.133H809.934V160.696H811.498V159.133ZM838.88 159.133H840.444V157.569H838.88V159.133ZM838.88 214.196V215.759H840.444V214.196H838.88ZM811.498 214.196V212.632H809.934V214.196H811.498ZM814.177 268.068L813.071 269.174L813.1 269.203L813.131 269.23L814.177 268.068ZM837.912 270.747V327H841.04V270.747H837.912ZM839.476 325.436H814.474V328.564H839.476V325.436ZM814.474 325.436C791.696 325.436 774.9 319.767 763.789 308.703C752.678 297.641 746.986 280.921 746.986 258.246H743.859C743.859 281.407 749.675 299.064 761.582 310.92C773.488 322.774 791.218 328.564 814.474 328.564V325.436ZM746.986 258.246V214.196H743.859V258.246H746.986ZM745.422 212.632H724.588V215.759H745.422V212.632ZM726.152 214.196V159.133H723.024V214.196H726.152ZM724.588 160.696H745.422V157.569H724.588V160.696ZM746.986 159.133V118.654H743.859V159.133H746.986ZM745.422 120.218H811.498V117.09H745.422V120.218ZM809.934 118.654V159.133H813.062V118.654H809.934ZM811.498 160.696H838.88V157.569H811.498V160.696ZM837.317 159.133V214.196H840.444V159.133H837.317ZM838.88 212.632H811.498V215.759H838.88V212.632ZM809.934 214.196V259.436H813.062V214.196H809.934ZM809.934 259.436C809.934 263.59 810.862 266.964 813.071 269.174L815.282 266.962C813.92 265.6 813.062 263.22 813.062 259.436H809.934ZM813.131 269.23C815.536 271.395 819.18 272.31 823.701 272.31V269.183C819.492 269.183 816.785 268.312 815.223 266.906L813.131 269.23ZM823.701 272.31H839.476V269.183H823.701V272.31ZM870.295 136.512L871.332 135.342L870.295 136.512ZM870.295 89.7832L871.332 90.9538L871.341 90.9456L871.35 90.9373L870.295 89.7832ZM925.358 89.7832L924.303 90.9373L924.312 90.9456L924.321 90.9538L925.358 89.7832ZM925.358 136.512L924.321 135.342L925.358 136.512ZM930.715 159.133H932.279V157.569H930.715V159.133ZM930.715 327V328.564H932.279V327H930.715ZM864.64 327H863.076V328.564H864.64V327ZM864.64 159.133V157.569H863.076V159.133H864.64ZM897.975 144.175C886.753 144.175 877.927 141.183 871.332 135.342L869.258 137.683C876.553 144.144 886.18 147.303 897.975 147.303V144.175ZM871.332 135.342C864.724 129.489 861.442 122.178 861.442 113.297H858.314C858.314 123.067 861.976 131.233 869.258 137.683L871.332 135.342ZM861.442 113.297C861.442 104.206 864.732 96.7993 871.332 90.9538L869.258 88.6126C861.968 95.0695 858.314 103.338 858.314 113.297H861.442ZM871.35 90.9373C877.946 84.907 886.766 81.8226 897.975 81.8226V78.6951C886.168 78.6951 876.534 81.9602 869.24 88.6291L871.35 90.9373ZM897.975 81.8226C908.978 81.8226 917.702 84.9025 924.303 90.9373L926.413 88.6291C919.124 81.9648 909.593 78.6951 897.975 78.6951V81.8226ZM924.321 90.9538C930.921 96.7993 934.212 104.206 934.212 113.297H937.339C937.339 103.338 933.685 95.0695 926.395 88.6126L924.321 90.9538ZM934.212 113.297C934.212 122.178 930.929 129.489 924.321 135.342L926.395 137.683C933.677 131.233 937.339 123.067 937.339 113.297H934.212ZM924.321 135.342C917.722 141.187 908.991 144.175 897.975 144.175V147.303C909.58 147.303 919.105 144.14 926.395 137.683L924.321 135.342ZM929.152 159.133V327H932.279V159.133H929.152ZM930.715 325.436H864.64V328.564H930.715V325.436ZM866.204 327V159.133H863.076V327H866.204ZM864.64 160.696H930.715V157.569H864.64V160.696ZM1045.68 264.199L1044.17 264.589L1047.2 264.585L1045.68 264.199ZM1072.47 159.133V157.569H1071.25L1070.95 158.746L1072.47 159.133ZM1142.71 159.133L1144.2 159.627L1144.88 157.569H1142.71V159.133ZM1086.76 327V328.564H1087.88L1088.24 327.495L1086.76 327ZM1004.31 327L1002.83 327.495L1003.18 328.564H1004.31V327ZM948.355 159.133V157.569H946.186L946.872 159.627L948.355 159.133ZM1018.6 159.133L1020.11 158.742L1019.81 157.569H1018.6V159.133ZM1047.2 264.585L1073.99 159.519L1070.95 158.746L1044.17 263.812L1047.2 264.585ZM1072.47 160.696H1142.71V157.569H1072.47V160.696ZM1141.23 158.638L1085.27 326.505L1088.24 327.495L1144.2 159.627L1141.23 158.638ZM1086.76 325.436H1004.31V328.564H1086.76V325.436ZM1005.79 326.505L949.839 158.638L946.872 159.627L1002.83 327.495L1005.79 326.505ZM948.355 160.696H1018.6V157.569H948.355V160.696ZM1017.08 159.523L1044.17 264.589L1047.2 263.808L1020.11 158.742L1017.08 159.523ZM1321.86 254.674V256.238H1323.22L1323.41 254.895L1321.86 254.674ZM1215.6 254.674V253.11H1213.93L1214.04 254.781L1215.6 254.674ZM1249.24 266.58V265.016H1248.26L1247.83 265.897L1249.24 266.58ZM1319.18 266.58L1320.71 266.886L1321.09 265.016H1319.18V266.58ZM1304 298.724L1302.79 297.738L1302.79 297.741L1304 298.724ZM1275.13 321.047L1275.79 322.465L1275.8 322.46L1275.13 321.047ZM1192.39 318.666L1191.65 320.043L1191.65 320.048L1192.39 318.666ZM1162.03 288.902L1160.66 289.651L1160.66 289.664L1160.67 289.676L1162.03 288.902ZM1162.03 197.528L1160.66 196.763L1160.66 196.77L1162.03 197.528ZM1192.39 167.467L1191.65 166.085L1191.65 166.09L1192.39 167.467ZM1281.38 167.467L1280.64 168.843L1280.65 168.85L1280.66 168.857L1281.38 167.467ZM1311.74 196.635L1310.38 197.402L1310.38 197.41L1310.39 197.418L1311.74 196.635ZM1255.78 225.803V227.367H1257.35V225.803H1255.78ZM1250.43 213.303L1249.43 214.504L1249.45 214.521L1249.47 214.537L1250.43 213.303ZM1216.5 225.803L1214.96 225.533L1214.63 227.367H1216.5V225.803ZM1321.19 241.578C1321.19 246.074 1320.9 250.365 1320.31 254.453L1323.41 254.895C1324.01 250.649 1324.32 246.21 1324.32 241.578H1321.19ZM1321.86 253.11H1215.6V256.238H1321.86V253.11ZM1214.04 254.781C1214.55 262.187 1216.36 267.995 1219.69 271.973C1223.06 276.014 1227.83 277.965 1233.76 277.965V274.838C1228.58 274.838 1224.76 273.168 1222.09 269.967C1219.36 266.702 1217.65 261.647 1217.16 254.567L1214.04 254.781ZM1233.76 277.965C1237.58 277.965 1240.95 277.088 1243.82 275.267C1246.69 273.446 1248.95 270.747 1250.64 267.262L1247.83 265.897C1246.34 268.96 1244.44 271.172 1242.15 272.626C1239.86 274.079 1237.08 274.838 1233.76 274.838V277.965ZM1249.24 268.143H1319.18V265.016H1249.24V268.143ZM1317.65 266.273C1315.32 277.927 1310.37 288.409 1302.79 297.738L1305.21 299.711C1313.11 289.991 1318.28 279.044 1320.71 266.886L1317.65 266.273ZM1302.79 297.741C1295.4 306.871 1285.97 314.171 1274.46 319.635L1275.8 322.46C1287.7 316.812 1297.52 309.23 1305.22 299.708L1302.79 297.741ZM1274.47 319.63C1263.19 324.882 1250.72 327.52 1237.03 327.52V330.647C1251.13 330.647 1264.06 327.927 1275.79 322.465L1274.47 319.63ZM1237.03 327.52C1220.59 327.52 1205.96 324.096 1193.12 317.285L1191.65 320.048C1205 327.126 1220.14 330.647 1237.03 330.647V327.52ZM1193.13 317.289C1180.49 310.486 1170.59 300.775 1163.39 288.129L1160.67 289.676C1168.15 302.825 1178.49 312.957 1191.65 320.043L1193.13 317.289ZM1163.4 288.154C1156.4 275.324 1152.88 260.311 1152.88 243.066H1149.75C1149.75 260.745 1153.37 276.289 1160.66 289.651L1163.4 288.154ZM1152.88 243.066C1152.88 225.821 1156.4 210.912 1163.4 198.285L1160.66 196.77C1153.37 209.939 1149.75 225.389 1149.75 243.066H1152.88ZM1163.39 198.293C1170.59 185.449 1180.5 175.644 1193.13 168.843L1191.65 166.09C1178.48 173.179 1168.15 183.415 1160.66 196.763L1163.39 198.293ZM1193.12 168.848C1205.96 162.037 1220.59 158.613 1237.03 158.613V155.485C1220.14 155.485 1205 159.006 1191.65 166.085L1193.12 168.848ZM1237.03 158.613C1253.48 158.613 1268 162.037 1280.64 168.843L1282.12 166.09C1268.97 159.006 1253.92 155.485 1237.03 155.485V158.613ZM1280.66 168.857C1293.49 175.465 1303.39 184.972 1310.38 197.402L1313.1 195.868C1305.81 182.899 1295.46 172.961 1282.1 166.076L1280.66 168.857ZM1310.39 197.418C1317.57 209.84 1321.19 224.541 1321.19 241.578H1324.32C1324.32 224.089 1320.6 208.828 1313.09 195.852L1310.39 197.418ZM1257.35 225.803C1257.35 219.887 1255.43 215.21 1251.39 212.068L1249.47 214.537C1252.57 216.951 1254.22 220.608 1254.22 225.803H1257.35ZM1251.43 212.101C1247.53 208.856 1242.7 207.274 1237.03 207.274V210.402C1242.08 210.402 1246.18 211.797 1249.43 214.504L1251.43 212.101ZM1237.03 207.274C1230.93 207.274 1225.9 208.75 1222.12 211.874C1218.34 215.001 1215.99 219.621 1214.96 225.533L1218.04 226.074C1218.98 220.675 1221.05 216.813 1224.11 214.285C1227.18 211.754 1231.43 210.402 1237.03 210.402V207.274ZM1216.5 227.367H1255.78V224.24H1216.5V227.367Z" fill="white" fill-opacity="0.1"/>
<path d="M276.802 401.283L276.379 402.063L276.383 402.065L276.802 401.283ZM298.58 422.386L299.353 421.951L298.58 422.386ZM298.58 483.837L299.355 484.267L298.58 483.837ZM276.802 505.446L277.232 506.221L277.235 506.22L276.802 505.446ZM194.249 513.211H193.362V514.098H194.249V513.211ZM194.249 393.687V392.8H193.362V393.687H194.249ZM260.764 472.863L261.369 473.512L260.764 472.863ZM260.764 433.359L261.369 432.71L260.764 433.359ZM231.727 426.438V425.551H230.84V426.438H231.727ZM231.727 479.785H230.84V480.672H231.727V479.785ZM244.051 394.573C256.422 394.573 267.189 397.08 276.379 402.063L277.225 400.504C267.733 395.357 256.665 392.8 244.051 392.8V394.573ZM276.383 402.065C285.694 407.053 292.828 413.97 297.807 422.821L299.353 421.951C294.202 412.795 286.818 405.643 277.221 400.502L276.383 402.065ZM297.807 422.821C302.789 431.678 305.29 441.767 305.29 453.111H307.064C307.064 441.497 304.5 431.102 299.353 421.951L297.807 422.821ZM305.29 453.111C305.29 464.342 302.789 474.433 297.805 483.406L299.355 484.267C304.5 475.008 307.064 464.615 307.064 453.111H305.29ZM297.805 483.406C292.823 492.372 285.685 499.459 276.369 504.672L277.235 506.22C286.827 500.853 294.207 493.533 299.355 484.267L297.805 483.406ZM276.372 504.67C267.183 509.763 256.419 512.324 244.051 512.324V514.098C256.668 514.098 267.738 511.483 277.232 506.221L276.372 504.67ZM244.051 512.324H194.249V514.098H244.051V512.324ZM195.136 513.211V393.687H193.362V513.211H195.136ZM194.249 394.573H244.051V392.8H194.249V394.573ZM240.674 480.672C249.282 480.672 256.215 478.315 261.369 473.512L260.159 472.214C255.41 476.64 248.949 478.898 240.674 478.898V480.672ZM261.369 473.512C266.546 468.688 269.079 461.842 269.079 453.111H267.305C267.305 461.488 264.886 467.81 260.159 472.214L261.369 473.512ZM269.079 453.111C269.079 444.381 266.546 437.535 261.369 432.71L260.159 434.008C264.886 438.413 267.305 444.735 267.305 453.111H269.079ZM261.369 432.71C256.215 427.908 249.282 425.551 240.674 425.551V427.325C248.949 427.325 255.41 429.582 260.159 434.008L261.369 432.71ZM240.674 425.551H231.727V427.325H240.674V425.551ZM230.84 426.438V479.785H232.614V426.438H230.84ZM231.727 480.672H240.674V478.898H231.727V480.672ZM411.38 472.188V473.075H412.149L412.258 472.313L411.38 472.188ZM351.111 472.188V471.301H350.161L350.226 472.249L351.111 472.188ZM370.187 478.941V478.054H369.632L369.389 478.554L370.187 478.941ZM409.86 478.941L410.73 479.115L410.942 478.054H409.86V478.941ZM401.25 497.173L400.562 496.614L400.561 496.616L401.25 497.173ZM384.875 509.835L385.249 510.639L385.255 510.636L384.875 509.835ZM337.943 508.484L337.522 509.265L337.527 509.268L337.943 508.484ZM320.723 491.602L319.944 492.027L319.948 492.034L319.952 492.041L320.723 491.602ZM320.723 439.774L319.949 439.341L319.947 439.345L320.723 439.774ZM337.943 422.724L337.527 421.94L337.522 421.943L337.943 422.724ZM388.42 422.724L388 423.505L388.007 423.508L388.014 423.512L388.42 422.724ZM405.64 439.268L404.867 439.703L404.872 439.712L405.64 439.268ZM373.901 455.812V456.699H374.788V455.812H373.901ZM370.863 448.722L370.295 449.403L370.306 449.413L370.318 449.422L370.863 448.722ZM351.617 455.812L350.744 455.659L350.561 456.699H351.617V455.812ZM410.999 464.76C410.999 467.31 410.833 469.744 410.502 472.063L412.258 472.313C412.602 469.905 412.773 467.387 412.773 464.76H410.999ZM411.38 471.301H351.111V473.075H411.38V471.301ZM350.226 472.249C350.514 476.449 351.541 479.744 353.427 482C355.342 484.292 358.046 485.399 361.409 485.399V483.625C358.469 483.625 356.305 482.678 354.788 480.862C353.24 479.01 352.271 476.143 351.996 472.127L350.226 472.249ZM361.409 485.399C363.574 485.399 365.49 484.901 367.117 483.868C368.744 482.836 370.027 481.305 370.986 479.328L369.389 478.554C368.547 480.291 367.466 481.546 366.167 482.37C364.869 483.194 363.295 483.625 361.409 483.625V485.399ZM370.187 479.828H409.86V478.054H370.187V479.828ZM408.99 478.767C407.668 485.377 404.861 491.322 400.562 496.614L401.939 497.733C406.418 492.22 409.351 486.01 410.73 479.115L408.99 478.767ZM400.561 496.616C396.374 501.794 391.025 505.935 384.495 509.034L385.255 510.636C392.006 507.433 397.573 503.132 401.94 497.731L400.561 496.616ZM384.5 509.031C378.101 512.01 371.027 513.506 363.266 513.506V515.28C371.261 515.28 378.593 513.737 385.249 510.639L384.5 509.031ZM363.266 513.506C353.938 513.506 345.643 511.564 338.358 507.701L337.527 509.268C345.098 513.283 353.685 515.28 363.266 515.28V513.506ZM338.363 507.703C331.196 503.844 325.577 498.336 321.494 491.164L319.952 492.041C324.198 499.499 330.058 505.246 337.522 509.265L338.363 507.703ZM321.502 491.178C317.532 483.9 315.532 475.385 315.532 465.604H313.759C313.759 475.631 315.81 484.448 319.944 492.027L321.502 491.178ZM315.532 465.604C315.532 455.822 317.532 447.366 321.499 440.204L319.947 439.345C315.81 446.814 313.759 455.577 313.759 465.604H315.532ZM321.497 440.208C325.581 432.923 331.2 427.362 338.363 423.505L337.522 421.943C330.055 425.964 324.194 431.77 319.949 439.341L321.497 440.208ZM338.358 423.507C345.643 419.644 353.938 417.702 363.266 417.702V415.928C353.685 415.928 345.098 417.925 337.527 421.94L338.358 423.507ZM363.266 417.702C372.593 417.702 380.83 419.644 388 423.505L388.841 421.943C381.379 417.925 372.846 415.928 363.266 415.928V417.702ZM388.014 423.512C395.29 427.26 400.901 432.653 404.867 439.703L406.413 438.833C402.275 431.477 396.407 425.84 388.826 421.935L388.014 423.512ZM404.872 439.712C408.945 446.758 410.999 455.096 410.999 464.76H412.773C412.773 454.84 410.663 446.184 406.408 438.824L404.872 439.712ZM374.788 455.812C374.788 452.457 373.698 449.804 371.407 448.022L370.318 449.422C372.079 450.791 373.015 452.866 373.015 455.812H374.788ZM371.431 448.041C369.221 446.2 366.479 445.303 363.266 445.303V447.077C366.13 447.077 368.452 447.868 370.295 449.403L371.431 448.041ZM363.266 445.303C359.806 445.303 356.953 446.14 354.809 447.912C352.661 449.685 351.332 452.306 350.744 455.659L352.491 455.966C353.028 452.904 354.203 450.713 355.938 449.279C357.676 447.843 360.086 447.077 363.266 447.077V445.303ZM351.617 456.699H373.901V454.925H351.617V456.699ZM472.022 477.59L471.163 477.812L472.881 477.809L472.022 477.59ZM487.216 417.997V417.11H486.526L486.356 417.778L487.216 417.997ZM527.057 417.997L527.899 418.277L528.288 417.11H527.057V417.997ZM495.319 513.211V514.098H495.958L496.16 513.492L495.319 513.211ZM448.556 513.211L447.714 513.492L447.916 514.098H448.556V513.211ZM416.817 417.997V417.11H415.587L415.976 418.277L416.817 417.997ZM456.659 417.997L457.518 417.775L457.346 417.11H456.659V417.997ZM472.881 477.809L488.075 418.216L486.356 417.778L471.162 477.371L472.881 477.809ZM487.216 418.884H527.057V417.11H487.216V418.884ZM526.216 417.716L494.477 512.931L496.16 513.492L527.899 418.277L526.216 417.716ZM495.319 512.324H448.556V514.098H495.319V512.324ZM449.397 512.931L417.659 417.716L415.976 418.277L447.714 513.492L449.397 512.931ZM416.817 418.884H456.659V417.11H416.817V418.884ZM455.8 418.218L471.163 477.812L472.881 477.369L457.518 417.775L455.8 418.218ZM628.67 472.188V473.075H629.439L629.548 472.313L628.67 472.188ZM568.401 472.188V471.301H567.451L567.516 472.249L568.401 472.188ZM587.478 478.941V478.054H586.922L586.68 478.554L587.478 478.941ZM627.151 478.941L628.02 479.115L628.232 478.054H627.151V478.941ZM618.541 497.173L617.852 496.614L617.851 496.616L618.541 497.173ZM602.165 509.835L602.539 510.639L602.545 510.636L602.165 509.835ZM555.233 508.484L554.813 509.265L554.818 509.268L555.233 508.484ZM538.013 491.602L537.235 492.027L537.239 492.034L537.243 492.041L538.013 491.602ZM538.013 439.774L537.24 439.341L537.237 439.345L538.013 439.774ZM555.233 422.724L554.817 421.94L554.813 421.943L555.233 422.724ZM605.71 422.724L605.29 423.505L605.297 423.508L605.304 423.512L605.71 422.724ZM622.93 439.268L622.157 439.703L622.162 439.712L622.93 439.268ZM591.192 455.812V456.699H592.079V455.812H591.192ZM588.153 448.722L587.585 449.403L587.597 449.413L587.608 449.422L588.153 448.722ZM568.908 455.812L568.034 455.659L567.851 456.699H568.908V455.812ZM628.289 464.76C628.289 467.31 628.123 469.744 627.792 472.063L629.548 472.313C629.892 469.905 630.063 467.387 630.063 464.76H628.289ZM628.67 471.301H568.401V473.075H628.67V471.301ZM567.516 472.249C567.804 476.449 568.832 479.744 570.717 482C572.632 484.292 575.337 485.399 578.699 485.399V483.625C575.759 483.625 573.595 482.678 572.078 480.862C570.531 479.01 569.561 476.143 569.286 472.127L567.516 472.249ZM578.699 485.399C580.864 485.399 582.78 484.901 584.408 483.868C586.035 482.836 587.317 481.305 588.276 479.328L586.68 478.554C585.837 480.291 584.757 481.546 583.457 482.37C582.159 483.194 580.586 483.625 578.699 483.625V485.399ZM587.478 479.828H627.151V478.054H587.478V479.828ZM626.281 478.767C624.959 485.377 622.152 491.322 617.852 496.614L619.229 497.733C623.708 492.22 626.641 486.01 628.02 479.115L626.281 478.767ZM617.851 496.616C613.664 501.794 608.315 505.935 601.785 509.034L602.545 510.636C609.296 507.433 614.863 503.132 619.23 497.731L617.851 496.616ZM601.791 509.031C595.391 512.01 588.317 513.506 580.556 513.506V515.28C588.551 515.28 595.884 513.737 602.539 510.639L601.791 509.031ZM580.556 513.506C571.229 513.506 562.933 511.564 555.649 507.701L554.818 509.268C562.389 513.283 570.976 515.28 580.556 515.28V513.506ZM555.654 507.703C548.487 503.844 542.867 498.336 538.784 491.164L537.243 492.041C541.488 499.499 547.348 505.246 554.813 509.265L555.654 507.703ZM538.792 491.178C534.823 483.9 532.823 475.385 532.823 465.604H531.049C531.049 475.631 533.101 484.448 537.235 492.027L538.792 491.178ZM532.823 465.604C532.823 455.822 534.823 447.366 538.789 440.204L537.237 439.345C533.101 446.814 531.049 455.577 531.049 465.604H532.823ZM538.787 440.208C542.871 432.923 548.49 427.362 555.654 423.505L554.813 421.943C547.345 425.964 541.484 431.77 537.24 439.341L538.787 440.208ZM555.649 423.507C562.933 419.644 571.229 417.702 580.556 417.702V415.928C570.976 415.928 562.389 417.925 554.818 421.94L555.649 423.507ZM580.556 417.702C589.884 417.702 598.12 419.644 605.29 423.505L606.131 421.943C598.669 417.925 590.136 415.928 580.556 415.928V417.702ZM605.304 423.512C612.58 427.26 618.191 432.653 622.157 439.703L623.703 438.833C619.565 431.477 613.697 425.84 606.117 421.935L605.304 423.512ZM622.162 439.712C626.236 446.758 628.289 455.096 628.289 464.76H630.063C630.063 454.84 627.953 446.184 623.698 438.824L622.162 439.712ZM592.079 455.812C592.079 452.457 590.989 449.804 588.698 448.022L587.608 449.422C589.369 450.791 590.305 452.866 590.305 455.812H592.079ZM588.721 448.041C586.512 446.2 583.769 445.303 580.556 445.303V447.077C583.421 447.077 585.743 447.868 587.585 449.403L588.721 448.041ZM580.556 445.303C577.096 445.303 574.244 446.14 572.099 447.912C569.952 449.685 568.622 452.306 568.034 455.659L569.781 455.966C570.318 452.904 571.493 450.713 573.229 449.279C574.967 447.843 577.376 447.077 580.556 447.077V445.303ZM568.908 456.699H591.192V454.925H568.908V456.699ZM678.508 388.284H679.395V387.397H678.508V388.284ZM678.508 513.211V514.098H679.395V513.211H678.508ZM641.029 513.211H640.142V514.098H641.029V513.211ZM641.029 388.284V387.397H640.142V388.284H641.029ZM677.621 388.284V513.211H679.395V388.284H677.621ZM678.508 512.324H641.029V514.098H678.508V512.324ZM641.916 513.211V388.284H640.142V513.211H641.916ZM641.029 389.171H678.508V387.397H641.029V389.171ZM714.849 508.484L715.255 507.696L714.849 508.484ZM696.785 491.602L696.016 492.045L696.02 492.052L696.024 492.059L696.785 491.602ZM696.785 439.774L696.021 439.323L696.019 439.327L696.785 439.774ZM714.849 422.724L715.255 423.512L714.849 422.724ZM766.508 422.724L766.102 423.512L766.508 422.724ZM784.403 439.774L783.634 440.217L783.638 440.224L783.642 440.231L784.403 439.774ZM784.403 491.602L783.639 491.151L783.637 491.155L784.403 491.602ZM766.508 508.484L766.102 507.696L766.508 508.484ZM749.457 477.928L750.124 478.512L750.13 478.505L750.136 478.498L749.457 477.928ZM749.457 453.449L748.778 454.019L748.784 454.026L748.789 454.033L749.457 453.449ZM731.9 453.449L732.567 454.033L732.573 454.026L732.579 454.019L731.9 453.449ZM731.731 477.928L731.038 478.482L731.05 478.497L731.063 478.512L731.731 477.928ZM740.678 513.506C731.237 513.506 722.769 511.563 715.255 507.696L714.443 509.273C722.235 513.284 730.987 515.28 740.678 515.28V513.506ZM715.255 507.696C707.747 503.831 701.849 498.319 697.546 491.146L696.024 492.059C700.5 499.517 706.644 505.259 714.443 509.273L715.255 507.696ZM697.554 491.16C693.366 483.886 691.257 475.377 691.257 465.604H689.483C689.483 475.639 691.651 484.462 696.016 492.045L697.554 491.16ZM691.257 465.604C691.257 455.83 693.366 447.38 697.551 440.222L696.019 439.327C691.651 446.8 689.483 455.569 689.483 465.604H691.257ZM697.549 440.226C701.853 432.941 707.75 427.375 715.255 423.512L714.443 421.935C706.641 425.951 700.496 431.752 696.021 439.323L697.549 440.226ZM715.255 423.512C722.769 419.645 731.237 417.702 740.678 417.702V415.928C730.987 415.928 722.235 417.924 714.443 421.935L715.255 423.512ZM740.678 417.702C750.12 417.702 758.588 419.645 766.102 423.512L766.914 421.935C759.122 417.924 750.37 415.928 740.678 415.928V417.702ZM766.102 423.512C773.604 427.374 779.443 432.937 783.634 440.217L785.171 439.332C780.809 431.755 774.718 425.952 766.914 421.935L766.102 423.512ZM783.642 440.231C787.936 447.388 790.1 455.834 790.1 465.604H791.874C791.874 455.565 789.648 446.792 785.163 439.318L783.642 440.231ZM790.1 465.604C790.1 475.373 787.936 483.879 783.639 491.151L785.166 492.054C789.648 484.47 791.874 475.643 791.874 465.604H790.1ZM783.637 491.155C779.447 498.322 773.608 503.832 766.102 507.696L766.914 509.273C774.714 505.258 780.805 499.514 785.168 492.05L783.637 491.155ZM766.102 507.696C758.588 511.563 750.12 513.506 740.678 513.506V515.28C750.37 515.28 759.122 513.284 766.914 509.273L766.102 507.696ZM740.678 482.867C744.431 482.867 747.598 481.399 750.124 478.512L748.789 477.344C746.589 479.859 743.903 481.093 740.678 481.093V482.867ZM750.136 478.498C752.684 475.465 753.889 471.12 753.889 465.604H752.115C752.115 470.893 750.956 474.764 748.778 477.357L750.136 478.498ZM753.889 465.604C753.889 460.092 752.686 455.792 750.124 452.865L748.789 454.033C750.955 456.508 752.115 460.312 752.115 465.604H753.889ZM750.136 452.878C747.614 449.876 744.445 448.341 740.678 448.341V450.115C743.89 450.115 746.573 451.394 748.778 454.019L750.136 452.878ZM740.678 448.341C736.912 448.341 733.742 449.876 731.22 452.878L732.579 454.019C734.784 451.394 737.467 450.115 740.678 450.115V448.341ZM731.232 452.865C728.671 455.792 727.467 460.092 727.467 465.604H729.241C729.241 460.312 730.402 456.508 732.567 454.033L731.232 452.865ZM727.467 465.604C727.467 471.111 728.612 475.449 731.038 478.482L732.423 477.374C730.348 474.779 729.241 470.901 729.241 465.604H727.467ZM731.063 478.512C733.596 481.406 736.822 482.867 740.678 482.867V481.093C737.332 481.093 734.593 479.852 732.398 477.344L731.063 478.512ZM840.239 430.996H839.352L841.02 431.416L840.239 430.996ZM850.368 420.698L850.804 421.47L850.81 421.467L850.368 420.698ZM886.496 422.724L886.007 423.464L886.017 423.47L886.496 422.724ZM900.508 439.606L899.7 439.973L899.704 439.98L899.707 439.987L900.508 439.606ZM900.508 491.771L899.705 491.394L899.702 491.399L900.508 491.771ZM886.496 508.653L886.975 509.4L886.984 509.393L886.496 508.653ZM850.368 510.679L849.917 511.443L849.929 511.45L849.941 511.456L850.368 510.679ZM840.239 500.212L841.02 499.792L839.352 500.212H840.239ZM840.239 558.793V559.68H841.126V558.793H840.239ZM802.761 558.793H801.874V559.68H802.761V558.793ZM802.761 417.997V417.11H801.874V417.997H802.761ZM840.239 417.997H841.126V417.11H840.239V417.997ZM863.874 453.787L864.526 453.186L863.874 453.787ZM843.953 453.787L843.3 453.186L843.953 453.787ZM843.953 477.421L843.3 478.022L843.953 477.421ZM841.02 431.416C843.303 427.176 846.559 423.865 850.804 421.47L849.932 419.925C845.399 422.483 841.902 426.037 839.458 430.575L841.02 431.416ZM850.81 421.467C855.154 418.969 860.341 417.702 866.406 417.702V415.928C860.091 415.928 854.586 417.249 849.926 419.929L850.81 421.467ZM866.406 417.702C873.667 417.702 880.193 419.624 886.007 423.464L886.984 421.983C880.868 417.945 874.001 415.928 866.406 415.928V417.702ZM886.017 423.47C891.817 427.191 896.384 432.676 899.7 439.973L901.315 439.239C897.879 431.679 893.104 425.909 886.974 421.977L886.017 423.47ZM899.707 439.987C903.127 447.159 904.854 455.689 904.854 465.604H906.628C906.628 455.486 904.866 446.683 901.308 439.224L899.707 439.987ZM904.854 465.604C904.854 475.519 903.128 484.107 899.705 491.394L901.31 492.148C904.866 484.579 906.628 475.723 906.628 465.604H904.854ZM899.702 491.399C896.386 498.585 891.817 504.076 886.007 507.913L886.984 509.393C893.104 505.352 897.876 499.589 901.313 492.143L899.702 491.399ZM886.017 507.907C880.202 511.637 873.673 513.506 866.406 513.506V515.28C873.995 515.28 880.86 513.323 886.974 509.4L886.017 507.907ZM866.406 513.506C860.335 513.506 855.142 512.293 850.795 509.902L849.941 511.456C854.598 514.018 860.097 515.28 866.406 515.28V513.506ZM850.819 509.915C846.565 507.407 843.305 504.035 841.02 499.792L839.458 500.633C841.9 505.168 845.392 508.774 849.917 511.443L850.819 509.915ZM839.352 500.212V558.793H841.126V500.212H839.352ZM840.239 557.906H802.761V559.68H840.239V557.906ZM803.648 558.793V417.997H801.874V558.793H803.648ZM802.761 418.884H840.239V417.11H802.761V418.884ZM839.352 417.997V430.996H841.126V417.997H839.352ZM868.643 465.604C868.643 460.391 867.309 456.211 864.526 453.186L863.221 454.387C865.615 456.99 866.87 460.688 866.87 465.604H868.643ZM864.526 453.186C861.759 450.178 858.196 448.679 853.913 448.679V450.453C857.734 450.453 860.811 451.768 863.221 454.387L864.526 453.186ZM853.913 448.679C849.63 448.679 846.068 450.178 843.3 453.186L844.606 454.387C847.015 451.768 850.093 450.453 853.913 450.453V448.679ZM843.3 453.186C840.517 456.211 839.183 460.391 839.183 465.604H840.957C840.957 460.688 842.211 456.99 844.606 454.387L843.3 453.186ZM839.183 465.604C839.183 470.817 840.517 474.997 843.3 478.022L844.606 476.821C842.211 474.218 840.957 470.52 840.957 465.604H839.183ZM843.3 478.022C846.068 481.03 849.63 482.529 853.913 482.529V480.755C850.093 480.755 847.015 479.44 844.606 476.821L843.3 478.022ZM853.913 482.529C858.196 482.529 861.759 481.03 864.526 478.022L863.221 476.821C860.811 479.44 857.734 480.755 853.913 480.755V482.529ZM864.526 478.022C867.309 474.997 868.643 470.817 868.643 465.604H866.87C866.87 470.52 865.615 474.218 863.221 476.821L864.526 478.022ZM1009.18 472.188V473.075H1009.94L1010.05 472.313L1009.18 472.188ZM948.906 472.188V471.301H947.957L948.021 472.249L948.906 472.188ZM967.983 478.941V478.054H967.427L967.185 478.554L967.983 478.941ZM1007.66 478.941L1008.53 479.115L1008.74 478.054H1007.66V478.941ZM999.046 497.173L998.358 496.614L998.356 496.616L999.046 497.173ZM982.67 509.835L983.045 510.639L983.051 510.636L982.67 509.835ZM935.738 508.484L935.318 509.265L935.323 509.268L935.738 508.484ZM918.519 491.602L917.74 492.027L917.744 492.034L917.748 492.041L918.519 491.602ZM918.519 439.774L917.745 439.341L917.743 439.345L918.519 439.774ZM935.738 422.724L935.323 421.94L935.318 421.943L935.738 422.724ZM986.216 422.724L985.795 423.505L985.802 423.508L985.81 423.512L986.216 422.724ZM1003.44 439.268L1002.66 439.703L1002.67 439.712L1003.44 439.268ZM971.697 455.812V456.699H972.584V455.812H971.697ZM968.658 448.722L968.091 449.403L968.102 449.413L968.114 449.422L968.658 448.722ZM949.413 455.812L948.539 455.659L948.357 456.699H949.413V455.812ZM1008.79 464.76C1008.79 467.31 1008.63 469.744 1008.3 472.063L1010.05 472.313C1010.4 469.905 1010.57 467.387 1010.57 464.76H1008.79ZM1009.18 471.301H948.906V473.075H1009.18V471.301ZM948.021 472.249C948.309 476.449 949.337 479.744 951.222 482C953.138 484.292 955.842 485.399 959.204 485.399V483.625C956.264 483.625 954.101 482.678 952.584 480.862C951.036 479.01 950.066 476.143 949.791 472.127L948.021 472.249ZM959.204 485.399C961.37 485.399 963.285 484.901 964.913 483.868C966.54 482.836 967.823 481.305 968.781 479.328L967.185 478.554C966.343 480.291 965.262 481.546 963.963 482.37C962.664 483.194 961.091 483.625 959.204 483.625V485.399ZM967.983 479.828H1007.66V478.054H967.983V479.828ZM1006.79 478.767C1005.46 485.377 1002.66 491.322 998.358 496.614L999.734 497.733C1004.21 492.22 1007.15 486.01 1008.53 479.115L1006.79 478.767ZM998.356 496.616C994.17 501.794 988.82 505.935 982.29 509.034L983.051 510.636C989.801 507.433 995.369 503.132 999.736 497.731L998.356 496.616ZM982.296 509.031C975.896 512.01 968.823 513.506 961.061 513.506V515.28C969.057 515.28 976.389 513.737 983.045 510.639L982.296 509.031ZM961.061 513.506C951.734 513.506 943.439 511.564 936.154 507.701L935.323 509.268C942.894 513.283 951.481 515.28 961.061 515.28V513.506ZM936.159 507.703C928.992 503.844 923.373 498.336 919.29 491.164L917.748 492.041C921.993 499.499 927.854 505.246 935.318 509.265L936.159 507.703ZM919.297 491.178C915.328 483.9 913.328 475.385 913.328 465.604H911.554C911.554 475.631 913.606 484.448 917.74 492.027L919.297 491.178ZM913.328 465.604C913.328 455.822 915.328 447.366 919.295 440.204L917.743 439.345C913.606 446.814 911.554 455.577 911.554 465.604H913.328ZM919.292 440.208C923.376 432.923 928.995 427.362 936.159 423.505L935.318 421.943C927.85 425.964 921.989 431.77 917.745 439.341L919.292 440.208ZM936.154 423.507C943.439 419.644 951.734 417.702 961.061 417.702V415.928C951.481 415.928 942.894 417.925 935.323 421.94L936.154 423.507ZM961.061 417.702C970.389 417.702 978.626 419.644 985.795 423.505L986.636 421.943C979.174 417.925 970.642 415.928 961.061 415.928V417.702ZM985.81 423.512C993.085 427.26 998.697 432.653 1002.66 439.703L1004.21 438.833C1000.07 431.477 994.202 425.84 986.622 421.935L985.81 423.512ZM1002.67 439.712C1006.74 446.758 1008.79 455.096 1008.79 464.76H1010.57C1010.57 454.84 1008.46 446.184 1004.2 438.824L1002.67 439.712ZM972.584 455.812C972.584 452.457 971.494 449.804 969.203 448.022L968.114 449.422C969.874 450.791 970.81 452.866 970.81 455.812H972.584ZM969.226 448.041C967.017 446.2 964.274 445.303 961.061 445.303V447.077C963.926 447.077 966.248 447.868 968.091 449.403L969.226 448.041ZM961.061 445.303C957.601 445.303 954.749 446.14 952.604 447.912C950.457 449.685 949.128 452.306 948.539 455.659L950.286 455.966C950.824 452.904 951.998 450.713 953.734 449.279C955.472 447.843 957.881 447.077 961.061 447.077V445.303ZM949.413 456.699H971.697V454.925H949.413V456.699ZM1059.01 435.554H1058.13V438.388L1059.74 436.06L1059.01 435.554ZM1073.02 422.386L1073.48 423.149L1073.49 423.142L1073.02 422.386ZM1090.24 417.321H1091.13V416.434H1090.24V417.321ZM1090.24 457.332V458.219H1091.13V457.332H1090.24ZM1063.91 461.046L1063.38 460.331L1063.38 460.335L1063.37 460.339L1063.91 461.046ZM1059.01 513.211V514.098H1059.9V513.211H1059.01ZM1021.53 513.211H1020.65V514.098H1021.53V513.211ZM1021.53 417.997V417.11H1020.65V417.997H1021.53ZM1059.01 417.997H1059.9V417.11H1059.01V417.997ZM1059.74 436.06C1063.5 430.645 1068.08 426.345 1073.48 423.149L1072.57 421.623C1066.94 424.955 1062.18 429.434 1058.28 435.048L1059.74 436.06ZM1073.49 423.142C1078.88 419.844 1084.46 418.208 1090.24 418.208V416.434C1084.1 416.434 1078.2 418.175 1072.56 421.63L1073.49 423.142ZM1089.36 417.321V457.332H1091.13V417.321H1089.36ZM1090.24 456.445H1079.61V458.219H1090.24V456.445ZM1079.61 456.445C1072.45 456.445 1066.99 457.689 1063.38 460.331L1064.43 461.761C1067.58 459.451 1072.59 458.219 1079.61 458.219V456.445ZM1063.37 460.339C1059.79 463.058 1058.13 467.787 1058.13 474.214H1059.9C1059.9 468.036 1061.5 463.986 1064.44 461.753L1063.37 460.339ZM1058.13 474.214V513.211H1059.9V474.214H1058.13ZM1059.01 512.324H1021.53V514.098H1059.01V512.324ZM1022.42 513.211V417.997H1020.65V513.211H1022.42ZM1021.53 418.884H1059.01V417.11H1021.53V418.884ZM1058.13 417.997V435.554H1059.9V417.997H1058.13Z" fill="white" fill-opacity="0.1"/>
</svg>
