<svg width="602" height="204" viewBox="0 0 602 204" fill="none" xmlns="http://www.w3.org/2000/svg">
<path d="M-76.0775 40.9581L-76.6858 42.08L-76.6802 42.083L-76.0775 40.9581ZM-44.7436 71.3204L-43.6313 70.6948L-43.6313 70.6948L-44.7436 71.3204ZM-44.7436 159.736L-43.628 160.355L-43.628 160.355L-44.7436 159.736ZM-76.0775 190.827L-75.4589 191.943L-75.4544 191.94L-76.0775 190.827ZM-194.855 202H-196.131V203.276H-194.855V202ZM-194.855 30.0276V28.7515H-196.131V30.0276H-194.855ZM-99.1529 143.947L-98.2829 144.881L-98.2829 144.881L-99.1529 143.947ZM-99.1529 87.1088L-98.2829 86.1752L-98.2829 86.1752L-99.1529 87.1088ZM-140.932 77.15V75.8738H-142.208V77.15H-140.932ZM-140.932 153.906H-142.208V155.182H-140.932V153.906ZM-123.2 31.3038C-105.4 31.3038 -89.9091 34.9107 -76.6858 42.0799L-75.4693 39.8362C-89.1267 32.4315 -105.05 28.7515 -123.2 28.7515V31.3038ZM-76.6802 42.083C-63.2831 49.26 -53.0191 59.2113 -45.8558 71.9461L-43.6313 70.6948C-51.0419 57.5203 -61.6673 47.2301 -75.4749 39.8332L-76.6802 42.083ZM-45.8558 71.9461C-38.6879 84.6891 -35.0893 99.2051 -35.0893 115.528H-32.537C-32.537 98.8166 -36.2253 83.861 -43.6313 70.6948L-45.8558 71.9461ZM-35.0893 115.528C-35.0893 131.686 -38.6868 146.206 -45.8591 159.116L-43.628 160.355C-36.2264 147.032 -32.537 132.08 -32.537 115.528H-35.0893ZM-45.8591 159.116C-53.0264 172.017 -63.2967 182.213 -76.7007 189.713L-75.4544 191.94C-61.6537 184.218 -51.0347 173.687 -43.628 160.355L-45.8591 159.116ZM-76.6961 189.71C-89.9174 197.038 -105.405 200.724 -123.2 200.724V203.276C-105.046 203.276 -89.1185 199.513 -75.4589 191.943L-76.6961 189.71ZM-123.2 200.724H-194.855V203.276H-123.2V200.724ZM-193.579 202V30.0276H-196.131V202H-193.579ZM-194.855 31.3038H-123.2V28.7515H-194.855V31.3038ZM-128.058 155.182C-115.673 155.182 -105.699 151.791 -98.2829 144.881L-100.023 143.014C-106.857 149.382 -116.152 152.63 -128.058 152.63V155.182ZM-98.2829 144.881C-90.8341 137.94 -87.1892 128.09 -87.1892 115.528H-89.7415C-89.7415 127.58 -93.2216 136.676 -100.023 143.014L-98.2829 144.881ZM-87.1892 115.528C-87.1892 102.966 -90.8341 93.1161 -98.2829 86.1752L-100.023 88.0425C-93.2216 94.38 -89.7415 103.476 -89.7415 115.528H-87.1892ZM-98.2829 86.1752C-105.699 79.2649 -115.673 75.8738 -128.058 75.8738V78.4262C-116.152 78.4262 -106.857 81.6743 -100.023 88.0425L-98.2829 86.1752ZM-128.058 75.8738H-140.932V78.4262H-128.058V75.8738ZM-142.208 77.15V153.906H-139.655V77.15H-142.208ZM-140.932 155.182H-128.058V152.63H-140.932V155.182ZM-14.3414 96.0961L-15.4965 95.5535L-15.5001 95.5613L-14.3414 96.0961ZM6.06213 71.8062L6.7512 72.8804L6.75832 72.8758L6.76538 72.8711L6.06213 71.8062ZM58.0425 68.8914L57.4064 69.9977L57.4169 70.0038L57.4275 70.0096L58.0425 68.8914ZM72.8593 83.7083L71.7357 84.3133L74.1355 83.7083H72.8593ZM72.8593 65.0051V63.7289H71.5832V65.0051H72.8593ZM126.54 65.0051H127.816V63.7289H126.54V65.0051ZM126.54 202V203.276H127.816V202H126.54ZM72.8593 202H71.5832V203.276H72.8593V202ZM72.8593 183.297H74.1355L71.7357 182.692L72.8593 183.297ZM58.0425 198.357L58.6575 199.475L58.6681 199.469L58.6786 199.463L58.0425 198.357ZM6.06213 195.442L5.35889 196.507L5.36595 196.511L5.37306 196.516L6.06213 195.442ZM-14.3414 171.152L-15.5031 171.68L-15.4983 171.691L-15.4932 171.701L-14.3414 171.152ZM67.2726 116.5L68.2118 115.636L68.2118 115.636L67.2726 116.5ZM38.6106 116.5L37.6714 115.636L37.6714 115.636L38.6106 116.5ZM38.6106 150.505L39.5497 149.641L38.6106 150.505ZM-20.3522 133.503C-20.3522 119.231 -17.9468 106.953 -13.1827 96.6309L-15.5001 95.5613C-20.4519 106.29 -22.9045 118.95 -22.9045 133.503H-20.3522ZM-13.1863 96.6386C-8.25208 86.1336 -1.59862 78.2368 6.7512 72.8804L5.37306 70.7321C-3.44196 76.387 -10.3908 84.6835 -15.4965 95.5536L-13.1863 96.6386ZM6.76538 72.8711C15.1307 67.3469 24.5193 64.5809 34.9671 64.5809V62.0286C24.0398 62.0286 14.1584 64.9303 5.35889 70.7413L6.76538 72.8711ZM34.9671 64.5809C43.6931 64.5809 51.1567 66.4042 57.4064 69.9977L58.6786 67.7851C51.9736 63.9298 44.0537 62.0286 34.9671 62.0286V64.5809ZM57.4275 70.0096C63.6963 73.4575 68.4554 78.2213 71.7357 84.3133L73.9829 83.1032C70.4621 76.5645 65.3433 71.4504 58.6575 67.7732L57.4275 70.0096ZM74.1355 83.7083V65.0051H71.5832V83.7083H74.1355ZM72.8593 66.2812H126.54V63.7289H72.8593V66.2812ZM125.264 65.0051V202H127.816V65.0051H125.264ZM126.54 200.724H72.8593V203.276H126.54V200.724ZM74.1355 202V183.297H71.5832V202H74.1355ZM71.7357 182.692C68.4526 188.789 63.6867 193.639 57.4064 197.25L58.6786 199.463C65.3529 195.625 70.4649 190.435 73.9829 183.902L71.7357 182.692ZM57.4275 197.238C51.1736 200.678 43.7022 202.424 34.9671 202.424V204.976C44.0446 204.976 51.9568 203.16 58.6575 199.475L57.4275 197.238ZM34.9671 202.424C24.5115 202.424 15.1178 199.735 6.7512 194.368L5.37306 196.516C14.1713 202.16 24.0476 204.976 34.9671 204.976V202.424ZM6.76537 194.377C-1.59854 188.853 -8.25582 180.947 -13.1895 170.602L-15.4932 171.701C-10.3871 182.408 -3.44205 190.695 5.35889 196.507L6.76537 194.377ZM-13.1796 170.624C-17.9471 160.135 -20.3522 147.773 -20.3522 133.503H-22.9045C-22.9045 148.056 -20.4516 160.793 -15.5031 171.68L-13.1796 170.624ZM74.1355 133.503C74.1355 126.002 72.2155 119.987 68.2118 115.636L66.3335 117.364C69.7786 121.108 71.5832 126.429 71.5832 133.503H74.1355ZM68.2118 115.636C64.2299 111.307 59.1041 109.151 52.9416 109.151V111.703C58.4383 111.703 62.8665 113.595 66.3335 117.364L68.2118 115.636ZM52.9416 109.151C46.7791 109.151 41.6533 111.307 37.6714 115.636L39.5497 117.364C43.0168 113.595 47.445 111.703 52.9416 111.703V109.151ZM37.6714 115.636C33.6677 119.987 31.7477 126.002 31.7477 133.503H34.3001C34.3001 126.429 36.1046 121.108 39.5497 117.364L37.6714 115.636ZM31.7477 133.503C31.7477 141.003 33.6677 147.018 37.6714 151.369L39.5497 149.641C36.1046 145.897 34.3001 140.576 34.3001 133.503H31.7477ZM37.6714 151.369C41.6533 155.698 46.7791 157.854 52.9416 157.854V155.302C47.445 155.302 43.0168 153.41 39.5497 149.641L37.6714 151.369ZM52.9416 157.854C59.1041 157.854 64.2299 155.698 68.2118 151.369L66.3335 149.641C62.8665 153.41 58.4383 155.302 52.9416 155.302V157.854ZM68.2118 151.369C72.2155 147.018 74.1355 141.003 74.1355 133.503H71.5832C71.5832 140.576 69.7786 145.897 66.3335 149.641L68.2118 151.369ZM283.377 79.8219L282.395 80.6374L282.403 80.6462L283.377 79.8219ZM296.736 202V203.276H298.012V202H296.736ZM243.056 202H241.779V203.276H243.056V202ZM237.712 114.071L236.751 114.911L236.77 114.932L236.79 114.953L237.712 114.071ZM209.778 114.071L210.721 114.931L210.73 114.921L210.739 114.911L209.778 114.071ZM204.677 202V203.276H205.954V202H204.677ZM150.754 202H149.478V203.276H150.754V202ZM150.754 65.0051V63.7289H149.478V65.0051H150.754ZM204.677 65.0051H205.954V63.7289H204.677V65.0051ZM204.677 85.8944H203.401V90.1993L205.747 86.5898L204.677 85.8944ZM221.438 70.1059L220.807 68.9963L220.796 69.0027L221.438 70.1059ZM246.699 65.3096C262.09 65.3096 273.931 70.4487 282.395 80.6374L284.358 79.0064C275.334 68.1439 262.723 62.7573 246.699 62.7573V65.3096ZM282.403 80.6462C291.061 90.8791 295.46 104.806 295.46 122.572H298.012C298.012 104.389 293.505 89.8159 284.351 78.9976L282.403 80.6462ZM295.46 122.572V202H298.012V122.572H295.46ZM296.736 200.724H243.056V203.276H296.736V200.724ZM244.332 202V129.373H241.779V202H244.332ZM244.332 129.373C244.332 122.656 242.478 117.207 238.634 113.189L236.79 114.953C240.07 118.383 241.779 123.136 241.779 129.373H244.332ZM238.672 113.23C234.996 109.029 230.011 106.965 223.867 106.965V109.517C229.381 109.517 233.626 111.339 236.751 114.911L238.672 113.23ZM223.867 106.965C217.572 106.965 212.501 109.021 208.818 113.23L210.739 114.911C213.857 111.347 218.178 109.517 223.867 109.517V106.965ZM208.836 113.21C205.165 117.231 203.401 122.671 203.401 129.373H205.954C205.954 123.121 207.591 118.359 210.721 114.931L208.836 113.21ZM203.401 129.373V202H205.954V129.373H203.401ZM204.677 200.724H150.754V203.276H204.677V200.724ZM152.03 202V65.0051H149.478V202H152.03ZM150.754 66.2812H204.677V63.7289H150.754V66.2812ZM203.401 65.0051V85.8944H205.954V65.0051H203.401ZM205.747 86.5898C209.844 80.2874 215.281 75.1614 222.079 71.2092L220.796 69.0027C213.668 73.1471 207.931 78.5467 203.608 85.1989L205.747 86.5898ZM222.068 71.2155C228.968 67.295 237.163 65.3096 246.699 65.3096V62.7573C236.803 62.7573 228.157 64.8202 220.807 68.9964L222.068 71.2155ZM324.734 46.5447L325.58 45.5894L325.58 45.5894L324.734 46.5447ZM324.734 8.40962L325.58 9.36494L325.588 9.35826L325.595 9.35146L324.734 8.40962ZM369.67 8.40962L368.809 9.35146L368.817 9.35826L368.824 9.36494L369.67 8.40962ZM369.67 46.5447L368.824 45.5894L368.824 45.5894L369.67 46.5447ZM374.042 65.0051H375.319V63.7289H374.042V65.0051ZM374.042 202V203.276H375.319V202H374.042ZM320.119 202H318.843V203.276H320.119V202ZM320.119 65.0051V63.7289H318.843V65.0051H320.119ZM347.324 52.7984C338.165 52.7984 330.962 50.3562 325.58 45.5894L323.888 47.5001C329.841 52.7731 337.698 55.3508 347.324 55.3508V52.7984ZM325.58 45.5894C320.188 40.8132 317.509 34.8464 317.509 27.5986H314.956C314.956 35.5726 317.945 42.2365 323.888 47.5001L325.58 45.5894ZM317.509 27.5986C317.509 20.1801 320.194 14.1354 325.58 9.36494L323.888 7.4543C317.939 12.7237 314.956 19.4717 314.956 27.5986H317.509ZM325.595 9.35146C330.978 4.43021 338.176 1.91301 347.324 1.91301V-0.639308C337.687 -0.639308 329.826 2.02534 323.873 7.46777L325.595 9.35146ZM347.324 1.91301C356.303 1.91301 363.423 4.42649 368.809 9.35146L370.531 7.46777C364.583 2.02906 356.805 -0.639308 347.324 -0.639308V1.91301ZM368.824 9.36494C374.21 14.1354 376.896 20.1801 376.896 27.5986H379.448C379.448 19.4717 376.466 12.7237 370.516 7.4543L368.824 9.36494ZM376.896 27.5986C376.896 34.8464 374.217 40.8132 368.824 45.5894L370.516 47.5001C376.459 42.2365 379.448 35.5726 379.448 27.5986H376.896ZM368.824 45.5894C363.438 50.3597 356.313 52.7984 347.324 52.7984V55.3508C356.794 55.3508 364.567 52.7696 370.516 47.5001L368.824 45.5894ZM372.766 65.0051V202H375.319V65.0051H372.766ZM374.042 200.724H320.119V203.276H374.042V200.724ZM321.395 202V65.0051H318.843V202H321.395ZM320.119 66.2812H374.042V63.7289H320.119V66.2812ZM530.291 142.976V144.252H531.398L531.554 143.156L530.291 142.976ZM443.576 142.976V141.699H442.21L442.303 143.063L443.576 142.976ZM471.024 152.692V151.415H470.224L469.875 152.135L471.024 152.692ZM528.105 152.692L529.356 152.942L529.662 151.415H528.105V152.692ZM515.717 178.925L514.727 178.12L514.725 178.122L515.717 178.925ZM492.156 197.142L492.694 198.299L492.703 198.295L492.156 197.142ZM424.63 195.199L424.025 196.322L424.032 196.326L424.63 195.199ZM399.854 170.909L398.734 171.52L398.739 171.53L398.745 171.54L399.854 170.909ZM399.854 96.339L398.741 95.7149L398.738 95.7207L399.854 96.339ZM424.63 71.8062L424.032 70.6788L424.025 70.6826L424.63 71.8062ZM497.257 71.8062L496.652 72.9298L496.662 72.9354L496.672 72.9407L497.257 71.8062ZM522.032 95.6103L520.92 96.236L520.924 96.2425L520.928 96.249L522.032 95.6103ZM476.367 119.414V120.691H477.644V119.414H476.367ZM471.995 109.213L471.178 110.193L471.195 110.207L471.212 110.22L471.995 109.213ZM444.305 119.414L443.048 119.194L442.785 120.691H444.305V119.414ZM529.744 132.288C529.744 135.957 529.504 139.459 529.028 142.795L531.554 143.156C532.049 139.691 532.296 136.068 532.296 132.288H529.744ZM530.291 141.699H443.576V144.252H530.291V141.699ZM442.303 143.063C442.717 149.106 444.196 153.846 446.908 157.093C449.664 160.391 453.555 161.983 458.393 161.983V159.431C454.163 159.431 451.05 158.068 448.867 155.456C446.64 152.792 445.245 148.666 444.849 142.888L442.303 143.063ZM458.393 161.983C461.508 161.983 464.264 161.267 466.607 159.781C468.947 158.295 470.793 156.092 472.172 153.248L469.875 152.135C468.663 154.634 467.109 156.439 465.239 157.626C463.371 158.811 461.107 159.431 458.393 159.431V161.983ZM471.024 153.968H528.105V151.415H471.024V153.968ZM526.854 152.441C524.951 161.952 520.913 170.506 514.727 178.12L516.707 179.729C523.152 171.798 527.372 162.863 529.356 152.942L526.854 152.441ZM514.725 178.122C508.701 185.573 501.004 191.53 491.609 195.989L492.703 198.295C502.416 193.686 510.426 187.498 516.709 179.727L514.725 178.122ZM491.617 195.985C482.409 200.272 472.232 202.424 461.065 202.424V204.976C472.568 204.976 483.118 202.757 492.694 198.299L491.617 195.985ZM461.065 202.424C447.645 202.424 435.709 199.63 425.228 194.071L424.032 196.326C434.926 202.103 447.28 204.976 461.065 204.976V202.424ZM425.235 194.075C414.923 188.523 406.838 180.598 400.963 170.278L398.745 171.54C404.854 182.271 413.286 190.54 424.025 196.322L425.235 194.075ZM400.975 170.298C395.263 159.827 392.386 147.576 392.386 133.503H389.834C389.834 147.93 392.786 160.615 398.734 171.52L400.975 170.298ZM392.386 133.503C392.386 119.429 395.264 107.262 400.971 96.9573L398.738 95.7207C392.786 106.468 389.834 119.076 389.834 133.503H392.386ZM400.967 96.963C406.844 86.4813 414.928 78.4796 425.235 72.9298L424.025 70.6826C413.28 76.4681 404.848 84.8216 398.741 95.7149L400.967 96.963ZM425.228 72.9337C435.709 67.3753 447.645 64.5809 461.065 64.5809V62.0286C447.28 62.0286 434.926 64.9019 424.032 70.6788L425.228 72.9337ZM461.065 64.5809C474.485 64.5809 486.336 67.3754 496.652 72.9298L497.862 70.6826C487.126 64.9017 474.849 62.0286 461.065 62.0286V64.5809ZM496.672 72.9407C507.141 78.3334 515.214 86.0924 520.92 96.236L523.145 94.9847C517.191 84.4008 508.748 76.2904 497.841 70.6717L496.672 72.9407ZM520.928 96.249C526.788 106.387 529.744 118.384 529.744 132.288H532.296C532.296 118.016 529.259 105.561 523.137 94.9716L520.928 96.249ZM477.644 119.414C477.644 114.586 476.075 110.769 472.779 108.205L471.212 110.22C473.745 112.19 475.091 115.175 475.091 119.414H477.644ZM472.812 108.232C469.634 105.584 465.688 104.293 461.065 104.293V106.845C465.186 106.845 468.527 107.984 471.178 110.193L472.812 108.232ZM461.065 104.293C456.086 104.293 451.983 105.497 448.897 108.047C445.807 110.599 443.894 114.369 443.048 119.194L445.562 119.635C446.335 115.23 448.025 112.077 450.522 110.014C453.023 107.949 456.489 106.845 461.065 106.845V104.293ZM444.305 120.691H476.367V118.138H444.305V120.691ZM601.997 22.2549H603.274V20.9787H601.997V22.2549ZM601.997 202V203.276H603.274V202H601.997ZM548.074 202H546.798V203.276H548.074V202ZM548.074 22.2549V20.9787H546.798V22.2549H548.074ZM600.721 22.2549V202H603.274V22.2549H600.721ZM601.997 200.724H548.074V203.276H601.997V200.724ZM549.35 202V22.2549H546.798V202H549.35ZM548.074 23.531H601.997V20.9787H548.074V23.531Z" fill="white" fill-opacity="0.1"/>
</svg>
