<svg width="954" height="248" viewBox="0 0 954 248" fill="none" xmlns="http://www.w3.org/2000/svg">
<path d="M-140.932 8.02762H-139.655V6.75146H-140.932V8.02762ZM-140.932 180V181.276H-139.655V180H-140.932ZM-194.855 180H-196.131V181.276H-194.855V180ZM-194.855 8.02762V6.75146H-196.131V8.02762H-194.855ZM-142.208 8.02762V180H-139.655V8.02762H-142.208ZM-140.932 178.724H-194.855V181.276H-140.932V178.724ZM-193.579 180V8.02762H-196.131V180H-193.579ZM-194.855 9.30379H-140.932V6.75146H-194.855V9.30379ZM-44.1933 46.8914L-44.8294 47.9977L-44.8189 48.0038L-44.8083 48.0096L-44.1933 46.8914ZM-29.3764 61.7083L-30.5001 62.3133L-28.1003 61.7083H-29.3764ZM-29.3764 43.0051V41.7289H-30.6526V43.0051H-29.3764ZM24.3042 43.0051H25.5804V41.7289H24.3042V43.0051ZM17.2601 212.548L16.0947 212.028L16.0947 212.028L17.2601 212.548ZM-5.57234 237.81L-6.22893 236.716L-6.23641 236.72L-5.57234 237.81ZM-98.1168 231.737L-97.3196 230.741L-97.3211 230.74L-98.1168 231.737ZM-119.978 189.959V188.683H-121.389L-121.247 190.087L-119.978 189.959ZM-67.0257 189.959L-65.7755 189.703L-65.9842 188.683H-67.0257V189.959ZM-34.7202 195.788L-33.8618 196.733L-33.8618 196.733L-34.7202 195.788ZM-29.3764 161.297H-28.1003L-30.5001 160.692L-29.3764 161.297ZM-44.1933 176.357L-43.5782 177.475L-43.5676 177.469L-43.5571 177.463L-44.1933 176.357ZM-96.1736 173.442L-96.8769 174.507L-96.8698 174.511L-96.8627 174.516L-96.1736 173.442ZM-116.577 149.152L-117.739 149.68L-117.734 149.691L-117.729 149.701L-116.577 149.152ZM-116.577 74.0961L-117.732 73.5535L-117.736 73.5613L-116.577 74.0961ZM-96.1736 49.8062L-95.4845 50.8804L-95.4774 50.8758L-95.4704 50.8711L-96.1736 49.8062ZM-34.9631 94.4996L-34.0239 93.6356L-34.0239 93.6356L-34.9631 94.4996ZM-63.6252 94.4996L-64.5643 93.6356L-64.5643 93.6356L-63.6252 94.4996ZM-63.6252 128.505L-62.686 127.641L-63.6252 128.505ZM-67.2686 42.5809C-58.5426 42.5809 -51.079 44.4042 -44.8294 47.9977L-43.5571 45.7851C-50.2621 41.9298 -58.1821 40.0286 -67.2686 40.0286V42.5809ZM-44.8083 48.0096C-38.5394 51.4575 -33.7804 56.2213 -30.5001 62.3133L-28.2528 61.1032C-31.7737 54.5645 -36.8925 49.4504 -43.5782 45.7732L-44.8083 48.0096ZM-28.1003 61.7083V43.0051H-30.6526V61.7083H-28.1003ZM-29.3764 44.2812H24.3042V41.7289H-29.3764V44.2812ZM23.0281 43.0051V177.571H25.5804V43.0051H23.0281ZM23.0281 177.571C23.0281 190.204 20.7101 201.684 16.0947 212.028L18.4256 213.068C23.2023 202.362 25.5804 190.523 25.5804 177.571H23.0281ZM16.0947 212.028C11.5125 222.299 4.0876 230.526 -6.22892 236.716L-4.91576 238.904C5.81896 232.463 13.6158 223.849 18.4256 213.068L16.0947 212.028ZM-6.23641 236.72C-16.342 242.878 -29.4509 246.007 -45.6507 246.007V248.559C-29.14 248.559 -15.53 245.372 -4.90826 238.9L-6.23641 236.72ZM-45.6507 246.007C-67.4788 246.007 -84.6558 240.872 -97.3196 230.741L-98.914 232.734C-85.6686 243.33 -67.8681 248.559 -45.6507 248.559V246.007ZM-97.3211 230.74C-109.821 220.771 -116.958 207.171 -118.708 189.831L-121.247 190.087C-119.435 208.048 -111.998 222.3 -98.9125 232.735L-97.3211 230.74ZM-119.978 191.235H-67.0257V188.683H-119.978V191.235ZM-68.276 190.215C-67.4815 194.099 -65.464 197.085 -62.226 199.063C-59.0353 201.013 -54.7648 201.923 -49.537 201.923V199.37C-54.511 199.37 -58.2562 198.498 -60.8951 196.886C-63.4866 195.302 -65.1126 192.944 -65.7755 189.703L-68.276 190.215ZM-49.537 201.923C-43.0056 201.923 -37.7247 200.244 -33.8618 196.733L-35.5786 194.844C-38.8407 197.81 -43.4378 199.37 -49.537 199.37V201.923ZM-33.8618 196.733C-29.8799 193.113 -28.1003 186.557 -28.1003 177.571H-30.6526C-30.6526 186.397 -32.4355 191.987 -35.5786 194.844L-33.8618 196.733ZM-28.1003 177.571V161.297H-30.6526V177.571H-28.1003ZM-30.5001 160.692C-33.7831 166.789 -38.5491 171.639 -44.8294 175.25L-43.5571 177.463C-36.8828 173.625 -31.7709 168.435 -28.2528 161.902L-30.5001 160.692ZM-44.8083 175.238C-51.0621 178.678 -58.5335 180.424 -67.2686 180.424V182.976C-58.1912 182.976 -50.279 181.16 -43.5782 177.475L-44.8083 175.238ZM-67.2686 180.424C-77.7243 180.424 -87.1179 177.735 -95.4845 172.368L-96.8627 174.516C-88.0645 180.16 -78.1881 182.976 -67.2686 182.976V180.424ZM-95.4704 172.377C-103.834 166.853 -110.492 158.947 -115.425 148.602L-117.729 149.701C-112.623 160.408 -105.678 168.695 -96.8769 174.507L-95.4704 172.377ZM-115.415 148.624C-120.183 138.135 -122.588 125.773 -122.588 111.503H-125.14C-125.14 126.056 -122.687 138.793 -117.739 149.68L-115.415 148.624ZM-122.588 111.503C-122.588 97.2315 -120.183 84.9532 -115.418 74.6309L-117.736 73.5613C-122.688 84.2902 -125.14 96.9496 -125.14 111.503H-122.588ZM-115.422 74.6386C-110.488 64.1336 -103.834 56.2368 -95.4845 50.8804L-96.8627 48.7321C-105.678 54.387 -112.627 62.6835 -117.732 73.5536L-115.422 74.6386ZM-95.4704 50.8711C-87.1051 45.3469 -77.7165 42.5809 -67.2686 42.5809V40.0286C-78.1959 40.0286 -88.0773 42.9303 -96.8769 48.7413L-95.4704 50.8711ZM-28.1003 111.503C-28.1003 104.002 -30.0202 97.9874 -34.0239 93.6356L-35.9023 95.3636C-32.4571 99.1084 -30.6526 104.429 -30.6526 111.503H-28.1003ZM-34.0239 93.6356C-38.0058 89.3074 -43.1316 87.151 -49.2941 87.151V89.7033C-43.7975 89.7033 -39.3693 91.5951 -35.9023 95.3636L-34.0239 93.6356ZM-49.2941 87.151C-55.4566 87.151 -60.5825 89.3074 -64.5643 93.6356L-62.686 95.3636C-59.219 91.5951 -54.7908 89.7033 -49.2941 89.7033V87.151ZM-64.5643 93.6356C-68.5681 97.9874 -70.488 104.002 -70.488 111.503H-67.9357C-67.9357 104.429 -66.1312 99.1084 -62.686 95.3636L-64.5643 93.6356ZM-70.488 111.503C-70.488 119.003 -68.5681 125.018 -64.5643 129.369L-62.686 127.641C-66.1312 123.897 -67.9357 118.576 -67.9357 111.503H-70.488ZM-64.5643 129.369C-60.5825 133.698 -55.4566 135.854 -49.2941 135.854V133.302C-54.7908 133.302 -59.219 131.41 -62.686 127.641L-64.5643 129.369ZM-49.2941 135.854C-43.1316 135.854 -38.0058 133.698 -34.0239 129.369L-35.9023 127.641C-39.3693 131.41 -43.7975 133.302 -49.2941 133.302V135.854ZM-34.0239 129.369C-30.0202 125.018 -28.1003 119.003 -28.1003 111.503H-30.6526C-30.6526 118.576 -32.4571 123.897 -35.9023 127.641L-34.0239 129.369ZM181.141 57.8219L180.159 58.6374L180.167 58.6462L181.141 57.8219ZM194.5 180V181.276H195.777V180H194.5ZM140.82 180H139.544V181.276H140.82V180ZM135.476 92.0706L134.516 92.911L134.534 92.9323L134.554 92.9527L135.476 92.0706ZM107.543 92.0706L108.485 92.9311L108.494 92.9211L108.503 92.911L107.543 92.0706ZM102.442 180V181.276H103.718V180H102.442ZM48.5182 180H47.242V181.276H48.5182V180ZM48.5182 0.25486V-1.0213H47.242V0.25486H48.5182ZM102.442 0.25486H103.718V-1.0213H102.442V0.25486ZM102.442 63.8944H101.166V68.1993L103.512 64.5898L102.442 63.8944ZM119.202 48.1059L118.571 46.9963L118.56 47.0027L119.202 48.1059ZM144.463 43.3096C159.854 43.3096 171.695 48.4487 180.159 58.6374L182.123 57.0064C173.098 46.1439 160.487 40.7573 144.463 40.7573V43.3096ZM180.167 58.6462C188.825 68.8791 193.224 82.8063 193.224 100.572H195.777C195.777 82.3889 191.269 67.8159 182.115 56.9976L180.167 58.6462ZM193.224 100.572V180H195.777V100.572H193.224ZM194.5 178.724H140.82V181.276H194.5V178.724ZM142.096 180V107.373H139.544V180H142.096ZM142.096 107.373C142.096 100.656 140.242 95.2074 136.398 91.1885L134.554 92.9527C137.835 96.3827 139.544 101.136 139.544 107.373H142.096ZM136.436 91.2303C132.761 87.0295 127.775 84.9649 121.631 84.9649V87.5172C127.145 87.5172 131.39 89.339 134.516 92.911L136.436 91.2303ZM121.631 84.9649C115.336 84.9649 110.265 87.0214 106.582 91.2303L108.503 92.911C111.621 89.3471 115.942 87.5172 121.631 87.5172V84.9649ZM106.6 91.2101C102.929 95.2307 101.166 100.671 101.166 107.373H103.718C103.718 101.121 105.355 96.3595 108.485 92.9311L106.6 91.2101ZM101.166 107.373V180H103.718V107.373H101.166ZM102.442 178.724H48.5182V181.276H102.442V178.724ZM49.7944 180V0.25486H47.242V180H49.7944ZM48.5182 1.53102H102.442V-1.0213H48.5182V1.53102ZM101.166 0.25486V63.8944H103.718V0.25486H101.166ZM103.512 64.5898C107.608 58.2874 113.045 53.1614 119.843 49.2092L118.56 47.0027C111.432 51.1471 105.696 56.5467 101.372 63.1989L103.512 64.5898ZM119.832 49.2155C126.732 45.295 134.927 43.3096 144.463 43.3096V40.7573C134.567 40.7573 125.921 42.8202 118.571 46.9964L119.832 49.2155ZM245.817 173.199L246.401 172.064L245.817 173.199ZM219.826 148.909L218.72 149.546L218.726 149.556L218.732 149.566L219.826 148.909ZM219.826 74.339L218.728 73.6898L218.725 73.6949L219.826 74.339ZM245.817 49.8062L246.401 50.9409L246.401 50.9409L245.817 49.8062ZM320.144 49.8062L319.56 50.9409L319.56 50.9409L320.144 49.8062ZM345.891 74.339L344.785 74.9758L344.791 74.9857L344.797 74.9956L345.891 74.339ZM345.891 148.909L344.792 148.26L344.789 148.265L345.891 148.909ZM320.144 173.199L319.56 172.064L319.56 172.064L320.144 173.199ZM295.611 129.234L296.571 130.074L296.58 130.065L296.588 130.055L295.611 129.234ZM295.611 94.0138L294.634 94.8346L294.642 94.8445L294.65 94.8542L295.611 94.0138ZM270.349 94.0138L271.31 94.8542L271.318 94.8445L271.327 94.8346L270.349 94.0138ZM270.106 129.234L269.11 130.031L269.128 130.053L269.146 130.074L270.106 129.234ZM282.98 180.424C269.396 180.424 257.212 177.629 246.401 172.064L245.233 174.334C256.444 180.104 269.036 182.976 282.98 182.976V180.424ZM246.401 172.064C235.598 166.504 227.113 158.572 220.921 148.252L218.732 149.566C225.171 160.297 234.012 168.558 245.233 174.334L246.401 172.064ZM220.932 148.272C214.907 137.807 211.872 125.564 211.872 111.503H209.32C209.32 125.941 212.439 138.636 218.72 149.546L220.932 148.272ZM211.872 111.503C211.872 97.4402 214.907 85.2825 220.928 74.9831L218.725 73.6949C212.439 84.4468 209.32 97.0647 209.32 111.503H211.872ZM220.925 74.9882C227.118 64.5072 235.604 56.4982 246.401 50.9409L245.233 48.6715C234.007 54.4495 225.165 62.7957 218.728 73.6898L220.925 74.9882ZM246.401 50.9409C257.212 45.3762 269.396 42.5809 282.98 42.5809V40.0286C269.036 40.0286 256.444 42.901 245.233 48.6715L246.401 50.9409ZM282.98 42.5809C296.564 42.5809 308.748 45.3762 319.56 50.9409L320.728 48.6715C309.516 42.901 296.925 40.0286 282.98 40.0286V42.5809ZM319.56 50.9409C330.354 56.4967 338.755 64.5019 344.785 74.9758L346.997 73.7022C340.72 62.801 331.956 54.451 320.728 48.6715L319.56 50.9409ZM344.797 74.9956C350.975 85.2928 354.088 97.446 354.088 111.503H356.64C356.64 97.0589 353.438 84.4364 346.985 73.6824L344.797 74.9956ZM354.088 111.503C354.088 125.559 350.975 137.796 344.792 148.26L346.99 149.558C353.437 138.646 356.64 125.947 356.64 111.503H354.088ZM344.789 148.265C338.76 158.578 330.359 166.506 319.56 172.064L320.728 174.334C331.951 168.557 340.715 160.292 346.993 149.553L344.789 148.265ZM319.56 172.064C308.748 177.629 296.564 180.424 282.98 180.424V182.976C296.925 182.976 309.516 180.104 320.728 174.334L319.56 172.064ZM282.98 136.34C288.38 136.34 292.936 134.229 296.571 130.074L294.65 128.394C291.484 132.012 287.62 133.788 282.98 133.788V136.34ZM296.588 130.055C300.255 125.69 301.988 119.438 301.988 111.503H299.436C299.436 119.112 297.768 124.682 294.634 128.413L296.588 130.055ZM301.988 111.503C301.988 103.572 300.257 97.3854 296.571 93.1735L294.65 94.8542C297.766 98.415 299.436 103.888 299.436 111.503H301.988ZM296.588 93.193C292.96 88.8736 288.399 86.6652 282.98 86.6652V89.2175C287.601 89.2175 291.461 91.0574 294.634 94.8346L296.588 93.193ZM282.98 86.6652C277.561 86.6652 273 88.8736 269.372 93.193L271.327 94.8346C274.499 91.0574 278.36 89.2175 282.98 89.2175V86.6652ZM269.389 93.1735C265.703 97.3854 263.972 103.572 263.972 111.503H266.525C266.525 103.888 268.194 98.415 271.31 94.8542L269.389 93.1735ZM263.972 111.503C263.972 119.426 265.619 125.668 269.11 130.031L271.103 128.437C268.116 124.704 266.525 119.124 266.525 111.503H263.972ZM269.146 130.074C272.79 134.239 277.432 136.34 282.98 136.34V133.788C278.165 133.788 274.224 132.002 271.067 128.394L269.146 130.074ZM372.304 74.0961L371.149 73.5535L371.146 73.5613L372.304 74.0961ZM392.708 49.8062L393.397 50.8804L393.404 50.8758L393.411 50.8711L392.708 49.8062ZM444.445 46.8914L443.797 47.9907L443.813 48.0004L443.83 48.0096L444.445 46.8914ZM459.262 61.7083L458.138 62.3133L460.538 61.7083H459.262ZM459.262 0.25486V-1.0213H457.986V0.25486H459.262ZM513.186 0.25486H514.462V-1.0213H513.186V0.25486ZM513.186 180V181.276H514.462V180H513.186ZM459.262 180H457.986V181.276H459.262V180ZM459.262 161.297H460.538L458.138 160.692L459.262 161.297ZM444.445 176.357L445.072 177.468L445.081 177.463L444.445 176.357ZM392.708 173.442L392.005 174.507L392.012 174.511L392.019 174.516L392.708 173.442ZM372.304 149.152L371.142 149.68L371.147 149.691L371.152 149.701L372.304 149.152ZM453.918 94.4996L454.857 93.6356L454.857 93.6356L453.918 94.4996ZM425.256 94.4996L424.317 93.6356L424.317 93.6356L425.256 94.4996ZM425.256 128.505L426.195 127.641L425.256 128.505ZM366.293 111.503C366.293 97.2315 368.699 84.9532 373.463 74.6309L371.146 73.5613C366.194 84.2902 363.741 96.9496 363.741 111.503H366.293ZM373.459 74.6386C378.394 64.1336 385.047 56.2368 393.397 50.8804L392.019 48.7321C383.204 54.387 376.255 62.6835 371.149 73.5536L373.459 74.6386ZM393.411 50.8711C401.776 45.3469 411.165 42.5809 421.613 42.5809V40.0286C410.685 40.0286 400.804 42.9303 392.005 48.7413L393.411 50.8711ZM421.613 42.5809C430.34 42.5809 437.716 44.4046 443.797 47.9907L445.093 45.7922C438.543 41.9294 430.698 40.0286 421.613 40.0286V42.5809ZM443.83 48.0096C450.099 51.4575 454.858 56.2213 458.138 62.3133L460.386 61.1032C456.865 54.5645 451.746 49.4504 445.06 45.7732L443.83 48.0096ZM460.538 61.7083V0.25486H457.986V61.7083H460.538ZM459.262 1.53102H513.186V-1.0213H459.262V1.53102ZM511.909 0.25486V180H514.462V0.25486H511.909ZM513.186 178.724H459.262V181.276H513.186V178.724ZM460.538 180V161.297H457.986V180H460.538ZM458.138 160.692C454.855 166.789 450.089 171.639 443.809 175.25L445.081 177.463C451.756 173.625 456.868 168.435 460.386 161.902L458.138 160.692ZM443.818 175.245C437.733 178.678 430.349 180.424 421.613 180.424V182.976C430.689 182.976 438.526 181.161 445.072 177.468L443.818 175.245ZM421.613 180.424C411.157 180.424 401.763 177.735 393.397 172.368L392.019 174.516C400.817 180.16 410.693 182.976 421.613 182.976V180.424ZM393.411 172.377C385.047 166.853 378.39 158.947 373.456 148.602L371.152 149.701C376.259 160.408 383.204 168.695 392.005 174.507L393.411 172.377ZM373.466 148.624C368.699 138.135 366.293 125.773 366.293 111.503H363.741C363.741 126.056 366.194 138.793 371.142 149.68L373.466 148.624ZM460.781 111.503C460.781 104.002 458.861 97.9874 454.857 93.6356L452.979 95.3636C456.424 99.1084 458.229 104.429 458.229 111.503H460.781ZM454.857 93.6356C450.876 89.3074 445.75 87.151 439.587 87.151V89.7033C445.084 89.7033 449.512 91.5951 452.979 95.3636L454.857 93.6356ZM439.587 87.151C433.425 87.151 428.299 89.3074 424.317 93.6356L426.195 95.3636C429.662 91.5951 434.091 89.7033 439.587 89.7033V87.151ZM424.317 93.6356C420.313 97.9874 418.393 104.002 418.393 111.503H420.946C420.946 104.429 422.75 99.1084 426.195 95.3636L424.317 93.6356ZM418.393 111.503C418.393 119.003 420.313 125.018 424.317 129.369L426.195 127.641C422.75 123.897 420.946 118.576 420.946 111.503H418.393ZM424.317 129.369C428.299 133.698 433.425 135.854 439.587 135.854V133.302C434.091 133.302 429.662 131.41 426.195 127.641L424.317 129.369ZM439.587 135.854C445.75 135.854 450.876 133.698 454.857 129.369L452.979 127.641C449.512 131.41 445.084 133.302 439.587 133.302V135.854ZM454.857 129.369C458.861 125.018 460.781 119.003 460.781 111.503H458.229C458.229 118.576 456.424 123.897 452.979 127.641L454.857 129.369ZM537.4 74.0961L536.244 73.5535L536.241 73.5613L537.4 74.0961ZM557.803 49.8062L558.492 50.8804L558.499 50.8758L558.506 50.8711L557.803 49.8062ZM609.783 46.8914L609.147 47.9977L609.158 48.0038L609.168 48.0096L609.783 46.8914ZM624.6 61.7083L623.477 62.3133L625.876 61.7083H624.6ZM624.6 43.0051V41.7289H623.324V43.0051H624.6ZM678.281 43.0051H679.557V41.7289H678.281V43.0051ZM678.281 180V181.276H679.557V180H678.281ZM624.6 180H623.324V181.276H624.6V180ZM624.6 161.297H625.876L623.477 160.692L624.6 161.297ZM609.783 176.357L610.398 177.475L610.409 177.469L610.42 177.463L609.783 176.357ZM557.803 173.442L557.1 174.507L557.107 174.511L557.114 174.516L557.803 173.442ZM537.4 149.152L536.238 149.68L536.243 149.691L536.248 149.701L537.4 149.152ZM619.014 94.4996L619.953 93.6356L619.953 93.6356L619.014 94.4996ZM590.351 94.4996L589.412 93.6356L589.412 93.6356L590.351 94.4996ZM590.351 128.505L591.291 127.641L590.351 128.505ZM531.389 111.503C531.389 97.2315 533.794 84.9532 538.558 74.6309L536.241 73.5613C531.289 84.2902 528.836 96.9496 528.836 111.503H531.389ZM538.555 74.6386C543.489 64.1336 550.142 56.2368 558.492 50.8804L557.114 48.7321C548.299 54.387 541.35 62.6835 536.244 73.5536L538.555 74.6386ZM558.506 50.8711C566.872 45.3469 576.26 42.5809 586.708 42.5809V40.0286C575.781 40.0286 565.899 42.9303 557.1 48.7413L558.506 50.8711ZM586.708 42.5809C595.434 42.5809 602.898 44.4042 609.147 47.9977L610.42 45.7851C603.715 41.9298 595.795 40.0286 586.708 40.0286V42.5809ZM609.168 48.0096C615.437 51.4575 620.196 56.2213 623.477 62.3133L625.724 61.1032C622.203 54.5645 617.084 49.4504 610.398 45.7732L609.168 48.0096ZM625.876 61.7083V43.0051H623.324V61.7083H625.876ZM624.6 44.2812H678.281V41.7289H624.6V44.2812ZM677.005 43.0051V180H679.557V43.0051H677.005ZM678.281 178.724H624.6V181.276H678.281V178.724ZM625.876 180V161.297H623.324V180H625.876ZM623.477 160.692C620.193 166.789 615.428 171.639 609.147 175.25L610.42 177.463C617.094 173.625 622.206 168.435 625.724 161.902L623.477 160.692ZM609.168 175.238C602.914 178.678 595.443 180.424 586.708 180.424V182.976C595.785 182.976 603.698 181.16 610.398 177.475L609.168 175.238ZM586.708 180.424C576.252 180.424 566.859 177.735 558.492 172.368L557.114 174.516C565.912 180.16 575.789 182.976 586.708 182.976V180.424ZM558.506 172.377C550.142 166.853 543.485 158.947 538.551 148.602L536.248 149.701C541.354 160.408 548.299 168.695 557.1 174.507L558.506 172.377ZM538.561 148.624C533.794 138.135 531.389 125.773 531.389 111.503H528.836C528.836 126.056 531.289 138.793 536.238 149.68L538.561 148.624ZM625.876 111.503C625.876 104.002 623.956 97.9874 619.953 93.6356L618.074 95.3636C621.52 99.1084 623.324 104.429 623.324 111.503H625.876ZM619.953 93.6356C615.971 89.3074 610.845 87.151 604.683 87.151V89.7033C610.179 89.7033 614.607 91.5951 618.074 95.3636L619.953 93.6356ZM604.683 87.151C598.52 87.151 593.394 89.3074 589.412 93.6356L591.291 95.3636C594.758 91.5951 599.186 89.7033 604.683 89.7033V87.151ZM589.412 93.6356C585.409 97.9874 583.489 104.002 583.489 111.503H586.041C586.041 104.429 587.845 99.1084 591.291 95.3636L589.412 93.6356ZM583.489 111.503C583.489 119.003 585.409 125.018 589.412 129.369L591.291 127.641C587.845 123.897 586.041 118.576 586.041 111.503H583.489ZM589.412 129.369C593.394 133.698 598.52 135.854 604.683 135.854V133.302C599.186 133.302 594.758 131.41 591.291 127.641L589.412 129.369ZM604.683 135.854C610.845 135.854 615.971 133.698 619.953 129.369L618.074 127.641C614.607 131.41 610.179 133.302 604.683 133.302V135.854ZM619.953 129.369C623.956 125.018 625.876 119.003 625.876 111.503H623.324C623.324 118.576 621.52 123.897 618.074 127.641L619.953 129.369ZM756.418 68.2665H755.142V72.3443L757.467 68.9941L756.418 68.2665ZM776.579 49.3204L777.229 50.4186L777.237 50.4138L777.245 50.4088L776.579 49.3204ZM801.355 42.0335H802.631V40.7573H801.355V42.0335ZM801.355 99.6005V100.877H802.631V99.6005H801.355ZM763.462 104.944L762.708 103.915L762.699 103.921L762.691 103.928L763.462 104.944ZM756.418 180V181.276H757.695V180H756.418ZM702.495 180H701.219V181.276H702.495V180ZM702.495 43.0051V41.7289H701.219V43.0051H702.495ZM756.418 43.0051H757.695V41.7289H756.418V43.0051ZM757.467 68.9941C762.873 61.2028 769.46 55.0168 777.229 50.4186L775.929 48.2222C767.829 53.0161 760.975 59.4609 755.37 67.539L757.467 68.9941ZM777.245 50.4088C784.997 45.6629 793.027 43.3096 801.355 43.3096V40.7573C792.517 40.7573 784.03 43.262 775.913 48.232L777.245 50.4088ZM800.079 42.0335V99.6005H802.631V42.0335H800.079ZM801.355 98.3243H786.052V100.877H801.355V98.3243ZM786.052 98.3243C775.749 98.3243 767.89 100.115 762.708 103.915L764.217 105.973C768.751 102.649 775.952 100.877 786.052 100.877V98.3243ZM762.691 103.928C757.535 107.839 755.142 114.643 755.142 123.89H757.695C757.695 115.001 759.998 109.175 764.234 105.961L762.691 103.928ZM755.142 123.89V180H757.695V123.89H755.142ZM756.418 178.724H702.495V181.276H756.418V178.724ZM703.771 180V43.0051H701.219V180H703.771ZM702.495 44.2812H756.418V41.7289H702.495V44.2812ZM755.142 43.0051V68.2665H757.695V43.0051H755.142ZM843.813 173.199L844.397 172.064L843.813 173.199ZM817.822 148.909L816.716 149.546L816.722 149.556L816.728 149.566L817.822 148.909ZM817.822 74.339L816.724 73.6898L816.721 73.6949L817.822 74.339ZM843.813 49.8062L844.397 50.9409L844.397 50.9409L843.813 49.8062ZM918.14 49.8062L917.556 50.9409L917.556 50.9409L918.14 49.8062ZM943.887 74.339L942.781 74.9758L942.787 74.9857L942.793 74.9956L943.887 74.339ZM943.887 148.909L942.788 148.26L942.785 148.265L943.887 148.909ZM918.14 173.199L917.556 172.064L917.556 172.064L918.14 173.199ZM893.607 129.234L894.567 130.074L894.576 130.065L894.584 130.055L893.607 129.234ZM893.607 94.0138L892.63 94.8346L892.638 94.8445L892.646 94.8542L893.607 94.0138ZM868.345 94.0138L869.306 94.8542L869.314 94.8445L869.323 94.8346L868.345 94.0138ZM868.103 129.234L867.106 130.031L867.124 130.053L867.142 130.074L868.103 129.234ZM880.976 180.424C867.392 180.424 855.208 177.629 844.397 172.064L843.229 174.334C854.44 180.104 867.032 182.976 880.976 182.976V180.424ZM844.397 172.064C833.595 166.504 825.109 158.572 818.917 148.252L816.728 149.566C823.167 160.297 832.008 168.558 843.229 174.334L844.397 172.064ZM818.928 148.272C812.903 137.807 809.868 125.564 809.868 111.503H807.316C807.316 125.941 810.435 138.636 816.716 149.546L818.928 148.272ZM809.868 111.503C809.868 97.4402 812.903 85.2825 818.924 74.9831L816.721 73.6949C810.435 84.4468 807.316 97.0647 807.316 111.503H809.868ZM818.921 74.9882C825.114 64.5072 833.6 56.4982 844.397 50.9409L843.229 48.6715C832.003 54.4495 823.161 62.7957 816.724 73.6898L818.921 74.9882ZM844.397 50.9409C855.208 45.3762 867.392 42.5809 880.976 42.5809V40.0286C867.032 40.0286 854.44 42.901 843.229 48.6715L844.397 50.9409ZM880.976 42.5809C894.56 42.5809 906.744 45.3762 917.556 50.9409L918.724 48.6715C907.512 42.901 894.921 40.0286 880.976 40.0286V42.5809ZM917.556 50.9409C928.35 56.4967 936.751 64.5019 942.781 74.9758L944.993 73.7022C938.716 62.801 929.952 54.451 918.724 48.6715L917.556 50.9409ZM942.793 74.9956C948.971 85.2928 952.084 97.446 952.084 111.503H954.636C954.636 97.0589 951.434 84.4364 944.981 73.6824L942.793 74.9956ZM952.084 111.503C952.084 125.559 948.971 137.796 942.788 148.26L944.986 149.558C951.433 138.646 954.636 125.947 954.636 111.503H952.084ZM942.785 148.265C936.756 158.578 928.355 166.506 917.556 172.064L918.724 174.334C929.947 168.557 938.711 160.292 944.989 149.553L942.785 148.265ZM917.556 172.064C906.744 177.629 894.56 180.424 880.976 180.424V182.976C894.921 182.976 907.512 180.104 918.724 174.334L917.556 172.064ZM880.976 136.34C886.376 136.34 890.932 134.229 894.567 130.074L892.646 128.394C889.48 132.012 885.616 133.788 880.976 133.788V136.34ZM894.584 130.055C898.251 125.69 899.984 119.438 899.984 111.503H897.432C897.432 119.112 895.764 124.682 892.63 128.413L894.584 130.055ZM899.984 111.503C899.984 103.572 898.253 97.3854 894.567 93.1735L892.646 94.8542C895.762 98.415 897.432 103.888 897.432 111.503H899.984ZM894.584 93.193C890.956 88.8736 886.395 86.6652 880.976 86.6652V89.2175C885.597 89.2175 889.457 91.0574 892.63 94.8346L894.584 93.193ZM880.976 86.6652C875.557 86.6652 870.997 88.8736 867.368 93.193L869.323 94.8346C872.495 91.0574 876.356 89.2175 880.976 89.2175V86.6652ZM867.385 93.1735C863.7 97.3854 861.968 103.572 861.968 111.503H864.521C864.521 103.888 866.19 98.415 869.306 94.8542L867.385 93.1735ZM861.968 111.503C861.968 119.426 863.615 125.668 867.106 130.031L869.099 128.437C866.112 124.704 864.521 119.124 864.521 111.503H861.968ZM867.142 130.074C870.786 134.239 875.428 136.34 880.976 136.34V133.788C876.161 133.788 872.22 132.002 869.063 128.394L867.142 130.074Z" fill="white" fill-opacity="0.05"/>
</svg>
