<svg width="1254" height="328" viewBox="0 0 1254 328" fill="none" xmlns="http://www.w3.org/2000/svg">
<path d="M163.987 144.91L165.343 145.689L165.349 145.678L163.987 144.91ZM136.604 170.507L135.878 169.122L135.869 169.127L136.604 170.507ZM66.9573 180.032V178.468H65.3935V180.032H66.9573ZM66.9573 247V248.564H68.521V247H66.9573ZM0.881856 247H-0.681893V248.564H0.881856V247ZM0.881856 36.2729V34.7092H-0.681893V36.2729H0.881856ZM152.379 55.917L151.298 57.047L151.306 57.0547L152.379 55.917ZM66.9573 89.2523V87.6886H65.3935V89.2523H66.9573ZM66.9573 127.945H65.3935V129.509H66.9573V127.945ZM171.65 108.599C171.65 121.641 168.636 133.478 162.625 144.143L165.349 145.678C171.641 134.516 174.777 122.145 174.777 108.599H171.65ZM162.631 144.132C156.643 154.562 147.748 162.896 135.878 169.122L137.331 171.892C149.669 165.42 159.029 156.689 165.343 145.689L162.631 144.132ZM135.869 169.127C124.242 175.328 110.024 178.468 93.1494 178.468V181.595C110.404 181.595 125.156 178.385 137.34 171.887L135.869 169.127ZM93.1494 178.468H66.9573V181.595H93.1494V178.468ZM65.3935 180.032V247H68.521V180.032H65.3935ZM66.9573 245.436H0.881856V248.564H66.9573V245.436ZM2.44561 247V36.2729H-0.681893V247H2.44561ZM0.881856 37.8367H93.1494V34.7092H0.881856V37.8367ZM93.1494 37.8367C118.69 37.8367 137.99 44.3173 151.298 57.047L153.46 54.7869C139.386 41.3246 119.199 34.7092 93.1494 34.7092V37.8367ZM151.306 57.0547C164.834 69.8091 171.65 86.9319 171.65 108.599H174.777C174.777 86.2153 167.704 68.2169 153.452 54.7792L151.306 57.0547ZM85.7084 129.509C92.7726 129.509 98.3616 127.847 102.183 124.247C106.023 120.63 107.809 115.313 107.809 108.599H104.682C104.682 114.782 103.045 119.138 100.039 121.97C97.015 124.819 92.3355 126.381 85.7084 126.381V129.509ZM107.809 108.599C107.809 101.884 106.023 96.5674 102.183 92.9507C98.3616 89.3505 92.7726 87.6886 85.7084 87.6886V90.8161C92.3355 90.8161 97.015 92.3786 100.039 95.2272C103.045 98.0592 104.682 102.416 104.682 108.599H107.809ZM85.7084 87.6886H66.9573V90.8161H85.7084V87.6886ZM65.3935 89.2523V127.945H68.521V89.2523H65.3935ZM66.9573 129.509H85.7084V126.381H66.9573V129.509ZM260.247 110.087H258.683V115.084L261.532 110.978L260.247 110.087ZM284.951 86.8712L285.747 88.2169L285.757 88.211L285.767 88.2049L284.951 86.8712ZM315.31 77.9421H316.874V76.3784H315.31V77.9421ZM315.31 148.482V150.046H316.874V148.482H315.31ZM268.879 155.03L267.954 153.769L267.944 153.777L267.933 153.784L268.879 155.03ZM260.247 247V248.564H261.811V247H260.247ZM194.172 247H192.608V248.564H194.172V247ZM194.172 79.1327V77.5689H192.608V79.1327H194.172ZM260.247 79.1327H261.811V77.5689H260.247V79.1327ZM261.532 110.978C268.156 101.431 276.227 93.8513 285.747 88.2169L284.154 85.5255C274.229 91.3998 265.831 99.2968 258.962 109.195L261.532 110.978ZM285.767 88.2049C295.266 82.3895 305.106 79.5059 315.31 79.5059V76.3784C304.481 76.3784 294.082 79.4475 284.134 85.5376L285.767 88.2049ZM313.746 77.9421V148.482H316.874V77.9421H313.746ZM315.31 146.918H296.559V150.046H315.31V146.918ZM296.559 146.918C283.933 146.918 274.304 149.112 267.954 153.769L269.803 156.291C275.358 152.217 284.183 150.046 296.559 150.046V146.918ZM267.933 153.784C261.616 158.577 258.683 166.915 258.683 178.246H261.811C261.811 167.354 264.633 160.214 269.824 156.276L267.933 153.784ZM258.683 178.246V247H261.811V178.246H258.683ZM260.247 245.436H194.172V248.564H260.247V245.436ZM195.735 247V79.1327H192.608V247H195.735ZM194.172 80.6964H260.247V77.5689H194.172V80.6964ZM258.683 79.1327V110.087H261.811V79.1327H258.683ZM367.336 238.666L368.052 237.276L367.336 238.666ZM335.489 208.902L334.134 209.683L334.141 209.695L334.148 209.707L335.489 208.902ZM335.489 117.528L334.142 116.732L334.139 116.739L335.489 117.528ZM367.336 87.4665L368.052 88.8569L367.336 87.4665ZM458.413 87.4665L457.697 88.8569L458.413 87.4665ZM489.962 117.528L488.607 118.308L488.614 118.32L488.622 118.332L489.962 117.528ZM489.962 208.902L488.616 208.107L488.612 208.113L489.962 208.902ZM458.413 238.666L457.697 237.276L458.413 238.666ZM428.352 184.794L429.528 185.824L429.539 185.812L429.549 185.8L428.352 184.794ZM428.352 141.636L427.154 142.642L427.164 142.654L427.175 142.666L428.352 141.636ZM397.397 141.636L398.574 142.666L398.585 142.654L398.595 142.642L397.397 141.636ZM397.1 184.794L395.879 185.771L395.9 185.798L395.923 185.824L397.1 184.794ZM412.874 247.52C396.229 247.52 381.299 244.094 368.052 237.276L366.62 240.057C380.358 247.128 395.788 250.647 412.874 250.647V247.52ZM368.052 237.276C354.815 230.463 344.417 220.743 336.83 208.098L334.148 209.707C342.038 222.857 352.871 232.98 366.62 240.057L368.052 237.276ZM336.844 208.122C329.46 195.298 325.742 180.297 325.742 163.066H322.615C322.615 180.758 326.437 196.315 334.134 209.683L336.844 208.122ZM325.742 163.066C325.742 145.835 329.461 130.937 336.839 118.317L334.139 116.739C326.437 129.913 322.615 145.375 322.615 163.066H325.742ZM336.835 118.323C344.424 105.48 354.821 95.6665 368.052 88.8569L366.62 86.0761C352.865 93.1562 342.031 103.383 334.143 116.732L336.835 118.323ZM368.052 88.8569C381.299 82.0382 396.229 78.6129 412.874 78.6129V75.4854C395.788 75.4854 380.358 79.0051 366.62 86.0761L368.052 88.8569ZM412.874 78.6129C429.52 78.6129 444.449 82.0382 457.697 88.8569L459.129 86.0761C445.391 79.0051 429.961 75.4854 412.874 75.4854V78.6129ZM457.697 88.8569C470.924 95.6647 481.218 105.474 488.607 118.308L491.318 116.748C483.627 103.39 472.888 93.158 459.129 86.0761L457.697 88.8569ZM488.622 118.332C496.192 130.95 500.007 145.842 500.007 163.066H503.134C503.134 145.368 499.21 129.901 491.303 116.723L488.622 118.332ZM500.007 163.066C500.007 180.29 496.192 195.286 488.616 208.107L491.309 209.698C499.21 196.327 503.134 180.765 503.134 163.066H500.007ZM488.612 208.113C481.225 220.75 470.93 230.465 457.697 237.276L459.129 240.057C472.881 232.978 483.62 222.85 491.312 209.692L488.612 208.113ZM457.697 237.276C444.449 244.094 429.52 247.52 412.874 247.52V250.647C429.961 250.647 445.391 247.128 459.129 240.057L457.697 237.276ZM412.874 193.501C419.491 193.501 425.074 190.914 429.528 185.824L427.175 183.764C423.295 188.198 418.56 190.373 412.874 190.373V193.501ZM429.549 185.8C434.042 180.451 436.166 172.791 436.166 163.066H433.038C433.038 172.391 430.995 179.216 427.154 183.788L429.549 185.8ZM436.166 163.066C436.166 153.348 434.044 145.768 429.528 140.607L427.175 142.666C430.993 147.029 433.038 153.736 433.038 163.066H436.166ZM429.549 140.631C425.103 135.338 419.515 132.632 412.874 132.632V135.759C418.536 135.759 423.266 138.014 427.154 142.642L429.549 140.631ZM412.874 132.632C406.234 132.632 400.646 135.338 396.2 140.631L398.595 142.642C402.483 138.014 407.213 135.759 412.874 135.759V132.632ZM396.22 140.607C391.704 145.768 389.583 153.348 389.583 163.066H392.711C392.711 153.736 394.756 147.029 398.574 142.666L396.22 140.607ZM389.583 163.066C389.583 172.776 391.601 180.424 395.879 185.771L398.321 183.817C394.661 179.242 392.711 172.406 392.711 163.066H389.583ZM395.923 185.824C400.388 190.926 406.076 193.501 412.874 193.501V190.373C406.974 190.373 402.145 188.186 398.277 183.764L395.923 185.824ZM527.388 56.5122L528.425 55.3416L527.388 56.5122ZM527.388 9.7832L528.425 10.9538L528.434 10.9456L528.443 10.9373L527.388 9.7832ZM582.451 9.7832L581.396 10.9373L581.405 10.9456L581.414 10.9538L582.451 9.7832ZM582.451 56.5122L581.414 55.3416L582.451 56.5122ZM497.327 327.362H495.763V328.926H497.327V327.362ZM497.327 271.109V269.545H495.763V271.109H497.327ZM519.352 268.43L518.306 267.268L518.275 267.295L518.246 267.324L519.352 268.43ZM522.328 79.1327V77.5689H520.764V79.1327H522.328ZM588.404 79.1327H589.967V77.5689H588.404V79.1327ZM555.068 64.1752C543.846 64.1752 535.019 61.1826 528.425 55.3416L526.351 57.6828C533.646 64.1442 543.273 67.3027 555.068 67.3027V64.1752ZM528.425 55.3416C521.817 49.489 518.534 42.1776 518.534 33.2965H515.407C515.407 43.0674 519.069 51.2331 526.351 57.6828L528.425 55.3416ZM518.534 33.2965C518.534 24.2062 521.825 16.7993 528.425 10.9538L526.351 8.6126C519.061 15.0695 515.407 23.3381 515.407 33.2965H518.534ZM528.443 10.9373C535.039 4.90702 543.859 1.82256 555.068 1.82256V-1.30493C543.26 -1.30493 533.627 1.96021 526.333 8.62911L528.443 10.9373ZM555.068 1.82256C566.071 1.82256 574.795 4.90247 581.396 10.9373L583.506 8.62911C576.217 1.96476 566.686 -1.30493 555.068 -1.30493V1.82256ZM581.414 10.9538C588.014 16.7993 591.304 24.2062 591.304 33.2965H594.432C594.432 23.3381 590.778 15.0695 583.488 8.6126L581.414 10.9538ZM591.304 33.2965C591.304 42.1776 588.022 49.489 581.414 55.3416L583.488 57.6828C590.77 51.2331 594.432 43.0674 594.432 33.2965H591.304ZM581.414 55.3416C574.815 61.1869 566.084 64.1752 555.068 64.1752V67.3027C566.673 67.3027 576.197 64.1399 583.488 57.6828L581.414 55.3416ZM586.84 258.608C586.84 281.283 581.148 298.003 570.037 309.065C558.926 320.129 542.13 325.798 519.352 325.798V328.926C542.608 328.926 560.338 323.136 572.244 311.282C584.151 299.426 589.967 281.769 589.967 258.608H586.84ZM519.352 325.798H497.327V328.926H519.352V325.798ZM498.89 327.362V271.109H495.763V327.362H498.89ZM497.327 272.672H510.125V269.545H497.327V272.672ZM510.125 272.672C514.624 272.672 518.226 271.767 520.458 269.536L518.246 267.324C516.906 268.665 514.357 269.545 510.125 269.545V272.672ZM520.398 269.592C522.845 267.39 523.892 263.993 523.892 259.798H520.764C520.764 263.541 519.828 265.898 518.306 267.268L520.398 269.592ZM523.892 259.798V79.1327H520.764V259.798H523.892ZM522.328 80.6964H588.404V77.5689H522.328V80.6964ZM586.84 79.1327V258.608H589.967V79.1327H586.84ZM779.282 174.674V176.238H780.638L780.83 174.895L779.282 174.674ZM673.026 174.674V173.11H671.351L671.465 174.781L673.026 174.674ZM706.659 186.58V185.016H705.679L705.251 185.897L706.659 186.58ZM776.603 186.58L778.137 186.886L778.511 185.016H776.603V186.58ZM761.424 218.724L760.21 217.738L760.208 217.741L761.424 218.724ZM732.553 241.047L733.213 242.465L733.223 242.46L732.553 241.047ZM649.81 238.666L649.068 240.043L649.077 240.048L649.81 238.666ZM619.451 208.902L618.078 209.651L618.085 209.664L618.092 209.676L619.451 208.902ZM619.451 117.528L618.087 116.763L618.083 116.77L619.451 117.528ZM649.81 87.4665L649.077 86.085L649.068 86.0897L649.81 87.4665ZM738.803 87.4665L738.062 88.8433L738.075 88.8501L738.087 88.8566L738.803 87.4665ZM769.162 116.635L767.799 117.402L767.804 117.41L767.809 117.418L769.162 116.635ZM713.207 145.803V147.367H714.77V145.803H713.207ZM707.849 133.303L706.848 134.504L706.868 134.521L706.889 134.537L707.849 133.303ZM673.918 145.803L672.378 145.533L672.057 147.367H673.918V145.803ZM778.611 161.578C778.611 166.074 778.318 170.365 777.734 174.453L780.83 174.895C781.437 170.649 781.739 166.21 781.739 161.578H778.611ZM779.282 173.11H673.026V176.238H779.282V173.11ZM671.465 174.781C671.973 182.187 673.785 187.995 677.109 191.973C680.486 196.014 685.253 197.965 691.181 197.965V194.838C685.998 194.838 682.184 193.168 679.509 189.967C676.78 186.702 675.071 181.647 674.586 174.567L671.465 174.781ZM691.181 197.965C694.999 197.965 698.376 197.088 701.246 195.267C704.114 193.446 706.376 190.747 708.066 187.262L705.251 185.897C703.766 188.96 701.861 191.172 699.57 192.626C697.281 194.079 694.507 194.838 691.181 194.838V197.965ZM706.659 188.143H776.603V185.016H706.659V188.143ZM775.07 186.273C772.739 197.927 767.79 208.409 760.21 217.738L762.637 219.711C770.534 209.991 775.705 199.044 778.137 186.886L775.07 186.273ZM760.208 217.741C752.827 226.871 743.395 234.171 731.883 239.635L733.223 242.46C745.125 236.812 754.941 229.23 762.64 219.708L760.208 217.741ZM731.893 239.63C720.61 244.882 708.139 247.52 694.455 247.52V250.647C708.551 250.647 721.479 247.927 733.213 242.465L731.893 239.63ZM694.455 247.52C678.011 247.52 663.386 244.096 650.542 237.285L649.077 240.048C662.426 247.126 677.565 250.647 694.455 250.647V247.52ZM650.551 237.289C637.916 230.486 628.008 220.775 620.81 208.129L618.092 209.676C625.577 222.825 635.909 232.957 649.068 240.043L650.551 237.289ZM620.824 208.154C613.826 195.324 610.3 180.311 610.3 163.066H607.172C607.172 180.745 610.79 196.289 618.078 209.651L620.824 208.154ZM610.3 163.066C610.3 145.821 613.826 130.912 620.819 118.285L618.083 116.77C610.789 129.939 607.172 145.389 607.172 163.066H610.3ZM620.815 118.293C628.015 105.449 637.922 95.6438 650.551 88.8433L649.068 86.0897C635.903 93.179 625.57 103.415 618.087 116.763L620.815 118.293ZM650.542 88.848C663.386 82.037 678.011 78.6129 694.455 78.6129V75.4854C677.565 75.4854 662.426 79.0062 649.077 86.085L650.542 88.848ZM694.455 78.6129C710.9 78.6129 725.422 82.0372 738.062 88.8433L739.545 86.0897C726.39 79.0061 711.346 75.4854 694.455 75.4854V78.6129ZM738.087 88.8566C750.915 95.4646 760.808 104.972 767.799 117.402L770.525 115.868C763.23 102.899 752.884 92.9612 739.519 86.0764L738.087 88.8566ZM767.809 117.418C774.99 129.84 778.611 144.541 778.611 161.578H781.739C781.739 144.089 778.018 128.828 770.516 115.852L767.809 117.418ZM714.77 145.803C714.77 139.887 712.849 135.21 708.809 132.068L706.889 134.537C709.993 136.951 711.643 140.608 711.643 145.803H714.77ZM708.85 132.101C704.955 128.856 700.12 127.274 694.455 127.274V130.402C699.506 130.402 703.599 131.797 706.848 134.504L708.85 132.101ZM694.455 127.274C688.355 127.274 683.327 128.75 679.545 131.874C675.76 135.001 673.415 139.621 672.378 145.533L675.459 146.074C676.406 140.675 678.477 136.813 681.537 134.285C684.601 131.754 688.849 130.402 694.455 130.402V127.274ZM673.918 147.367H713.207V144.24H673.918V147.367ZM802.858 117.528L801.494 116.763L801.49 116.77L802.858 117.528ZM833.217 87.4665L832.484 86.085L832.476 86.0897L833.217 87.4665ZM932.926 95.5027L931.929 96.708L931.937 96.7144L932.926 95.5027ZM961.499 146.696V148.26H963.372L963.037 146.417L961.499 146.696ZM891.554 146.696L890.054 147.139L890.385 148.26H891.554V146.696ZM863.576 141.041L862.259 140.198L862.247 140.217L862.235 140.237L863.576 141.041ZM863.576 185.091L862.235 185.896L862.247 185.915L862.259 185.934L863.576 185.091ZM891.554 179.436V177.873H890.385L890.054 178.993L891.554 179.436ZM961.499 179.436L963.037 179.716L963.372 177.873H961.499V179.436ZM932.926 230.63L931.937 229.418L931.929 229.425L932.926 230.63ZM833.217 238.666L832.476 240.043L832.484 240.048L833.217 238.666ZM802.858 208.902L801.485 209.651L801.492 209.664L801.499 209.676L802.858 208.902ZM793.707 163.066C793.707 145.821 797.233 130.912 804.226 118.285L801.49 116.77C794.197 129.939 790.579 145.389 790.579 163.066H793.707ZM804.222 118.293C811.422 105.449 821.329 95.6438 833.958 88.8433L832.476 86.0897C819.31 93.179 808.977 103.415 801.494 116.763L804.222 118.293ZM833.95 88.848C846.793 82.037 861.418 78.6129 877.863 78.6129V75.4854C860.972 75.4854 845.833 79.0062 832.484 86.085L833.95 88.848ZM877.863 78.6129C899.376 78.6129 917.364 84.6675 931.929 96.708L933.922 94.2975C918.723 81.7332 900.003 75.4854 877.863 75.4854V78.6129ZM931.937 96.7144C946.689 108.749 956.048 125.461 959.96 146.976L963.037 146.417C959.012 124.278 949.323 106.861 933.914 94.291L931.937 96.7144ZM961.499 145.133H891.554V148.26H961.499V145.133ZM893.054 146.253C891.709 141.701 889.671 138.128 886.846 135.69C883.995 133.231 880.468 132.036 876.374 132.036V135.164C879.821 135.164 882.594 136.152 884.803 138.058C887.037 139.986 888.82 142.961 890.054 147.139L893.054 146.253ZM876.374 132.036C870.424 132.036 865.687 134.842 862.259 140.198L864.893 141.884C867.815 137.32 871.61 135.164 876.374 135.164V132.036ZM862.235 140.237C859.045 145.554 857.548 153.231 857.548 163.066H860.675C860.675 153.456 862.155 146.45 864.917 141.846L862.235 140.237ZM857.548 163.066C857.548 172.902 859.045 180.579 862.235 185.896L864.917 184.287C862.155 179.683 860.675 172.677 860.675 163.066H857.548ZM862.259 185.934C865.687 191.291 870.424 194.096 876.374 194.096V190.969C871.61 190.969 867.815 188.813 864.893 184.249L862.259 185.934ZM876.374 194.096C880.468 194.096 883.995 192.902 886.846 190.442C889.671 188.005 891.709 184.431 893.054 179.879L890.054 178.993C888.82 183.172 887.037 186.147 884.803 188.074C882.594 189.98 879.821 190.969 876.374 190.969V194.096ZM891.554 181H961.499V177.873H891.554V181ZM959.96 179.157C956.048 200.672 946.689 217.384 931.937 229.418L933.914 231.842C949.323 219.271 959.012 201.855 963.037 179.716L959.96 179.157ZM931.929 229.425C917.364 241.465 899.376 247.52 877.863 247.52V250.647C900.003 250.647 918.723 244.399 933.922 231.835L931.929 229.425ZM877.863 247.52C861.418 247.52 846.793 244.096 833.95 237.285L832.484 240.048C845.833 247.126 860.972 250.647 877.863 250.647V247.52ZM833.958 237.289C821.323 230.486 811.416 220.775 804.217 208.129L801.499 209.676C808.984 222.825 819.316 232.957 832.476 240.043L833.958 237.289ZM804.231 208.154C797.233 195.324 793.707 180.311 793.707 163.066H790.579C790.579 180.745 794.197 196.289 801.485 209.651L804.231 208.154ZM1086.92 190.747H1088.48V189.183H1086.92V190.747ZM1086.92 247V248.564H1088.48V247H1086.92ZM992.862 134.196H994.426V132.632H992.862V134.196ZM972.028 134.196H970.464V135.759H972.028V134.196ZM972.028 79.1327V77.5689H970.464V79.1327H972.028ZM992.862 79.1327V80.6964H994.426V79.1327H992.862ZM992.862 38.654V37.0903H991.298V38.654H992.862ZM1058.94 38.654H1060.5V37.0903H1058.94V38.654ZM1058.94 79.1327H1057.37V80.6964H1058.94V79.1327ZM1086.32 79.1327H1087.88V77.5689H1086.32V79.1327ZM1086.32 134.196V135.759H1087.88V134.196H1086.32ZM1058.94 134.196V132.632H1057.37V134.196H1058.94ZM1061.62 188.068L1060.51 189.174L1060.54 189.203L1060.57 189.23L1061.62 188.068ZM1085.35 190.747V247H1088.48V190.747H1085.35ZM1086.92 245.436H1061.91V248.564H1086.92V245.436ZM1061.91 245.436C1039.14 245.436 1022.34 239.767 1011.23 228.703C1000.12 217.641 994.426 200.921 994.426 178.246H991.298C991.298 201.407 997.115 219.064 1009.02 230.92C1020.93 242.774 1038.66 248.564 1061.91 248.564V245.436ZM994.426 178.246V134.196H991.298V178.246H994.426ZM992.862 132.632H972.028V135.759H992.862V132.632ZM973.591 134.196V79.1327H970.464V134.196H973.591ZM972.028 80.6964H992.862V77.5689H972.028V80.6964ZM994.426 79.1327V38.654H991.298V79.1327H994.426ZM992.862 40.2178H1058.94V37.0903H992.862V40.2178ZM1057.37 38.654V79.1327H1060.5V38.654H1057.37ZM1058.94 80.6964H1086.32V77.5689H1058.94V80.6964ZM1084.76 79.1327V134.196H1087.88V79.1327H1084.76ZM1086.32 132.632H1058.94V135.759H1086.32V132.632ZM1057.37 134.196V179.436H1060.5V134.196H1057.37ZM1057.37 179.436C1057.37 183.59 1058.3 186.964 1060.51 189.174L1062.72 186.962C1061.36 185.6 1060.5 183.22 1060.5 179.436H1057.37ZM1060.57 189.23C1062.98 191.395 1066.62 192.31 1071.14 192.31V189.183C1066.93 189.183 1064.23 188.312 1062.66 186.906L1060.57 189.23ZM1071.14 192.31H1086.92V189.183H1071.14V192.31ZM1144.52 241.345L1143.91 242.783L1143.92 242.787L1144.52 241.345ZM1103.45 188.961V187.397H1101.74L1101.89 189.095L1103.45 188.961ZM1166.85 188.961L1168.39 188.714L1168.18 187.397H1166.85V188.961ZM1173.1 199.973L1172.19 201.251L1172.21 201.263L1172.23 201.274L1173.1 199.973ZM1194.53 201.462L1195.42 202.743L1195.46 202.714L1195.5 202.683L1194.53 201.462ZM1170.12 182.413L1170.43 180.879L1170.42 180.878L1170.12 182.413ZM1140.06 174.674L1139.53 176.146L1139.54 176.15L1140.06 174.674ZM1119.52 160.388L1118.33 161.402L1118.34 161.412L1118.35 161.422L1119.52 160.388ZM1118.93 104.432L1117.62 103.579L1117.61 103.586L1118.93 104.432ZM1143.33 84.4901L1143.97 85.9191L1143.98 85.9142L1143.99 85.9092L1143.33 84.4901ZM1235.3 93.7169L1234.27 94.8938L1234.28 94.9016L1235.3 93.7169ZM1258.52 137.172V138.736H1260.32L1260.07 136.948L1258.52 137.172ZM1199.88 137.172L1198.35 137.504L1198.62 138.736H1199.88V137.172ZM1193.63 126.755L1192.65 127.968L1192.67 127.987L1192.69 128.006L1193.63 126.755ZM1173.1 124.969L1173.96 126.27L1174.01 126.238L1174.06 126.203L1173.1 124.969ZM1176.67 138.362L1176.05 139.8L1176.08 139.812L1176.11 139.824L1176.67 138.362ZM1196.61 143.422L1196.91 141.888L1196.91 141.888L1196.61 143.422ZM1227.27 151.458L1226.74 152.931L1227.27 151.458ZM1248.99 166.936L1247.79 167.94L1247.8 167.948L1247.81 167.956L1248.99 166.936ZM1249.59 223.487L1250.85 224.405L1249.59 223.487ZM1224.59 242.238L1223.98 240.795L1223.97 240.799L1224.59 242.238ZM1186.79 247.52C1171.08 247.52 1157.21 244.968 1145.13 239.903L1143.92 242.787C1156.44 248.04 1170.74 250.647 1186.79 250.647V247.52ZM1145.14 239.906C1133.24 234.837 1123.84 227.844 1116.88 218.951L1114.42 220.879C1121.75 230.241 1131.6 237.535 1143.91 242.783L1145.14 239.906ZM1116.88 218.951C1109.93 210.062 1105.97 200.032 1105.01 188.826L1101.89 189.095C1102.91 200.907 1107.09 211.513 1114.42 220.879L1116.88 218.951ZM1103.45 190.525H1166.85V187.397H1103.45V190.525ZM1165.3 189.208C1166.15 194.488 1168.4 198.576 1172.19 201.251L1174 198.696C1171.04 196.609 1169.13 193.355 1168.39 188.714L1165.3 189.208ZM1172.23 201.274C1176.11 203.865 1180.9 205.109 1186.49 205.109V201.981C1181.36 201.981 1177.22 200.844 1173.96 198.672L1172.23 201.274ZM1186.49 205.109C1190.06 205.109 1193.09 204.375 1195.42 202.743L1193.63 200.18C1191.99 201.326 1189.66 201.981 1186.49 201.981V205.109ZM1195.5 202.683C1197.79 200.853 1199.07 198.545 1199.07 195.806H1195.94C1195.94 197.433 1195.23 198.895 1193.55 200.24L1195.5 202.683ZM1199.07 195.806C1199.07 193.614 1198.45 191.654 1197.17 190.01C1195.91 188.384 1194.08 187.173 1191.81 186.309L1190.69 189.232C1192.59 189.955 1193.89 190.877 1194.7 191.93C1195.51 192.964 1195.94 194.228 1195.94 195.806H1199.07ZM1191.81 186.309C1187.51 184.671 1180.35 182.865 1170.43 180.879L1169.81 183.946C1179.73 185.929 1186.66 187.694 1190.69 189.232L1191.81 186.309ZM1170.42 180.878C1158.36 178.506 1148.42 175.943 1140.57 173.198L1139.54 176.15C1147.57 178.961 1157.67 181.558 1169.82 183.947L1170.42 180.878ZM1140.59 173.202C1133.12 170.522 1126.49 165.921 1120.69 159.353L1118.35 161.422C1124.46 168.347 1131.52 173.271 1139.53 176.146L1140.59 173.202ZM1120.71 159.373C1115.27 152.994 1112.45 144.072 1112.45 132.41H1109.33C1109.33 144.559 1112.26 154.289 1118.33 161.402L1120.71 159.373ZM1112.45 132.41C1112.45 122.378 1115.05 113.348 1120.24 105.277L1117.61 103.586C1112.08 112.183 1109.33 121.805 1109.33 132.41H1112.45ZM1120.24 105.285C1125.6 97.0426 1133.48 90.5777 1143.97 85.9191L1142.7 83.0612C1131.75 87.927 1123.36 94.7565 1117.62 103.579L1120.24 105.285ZM1143.99 85.9092C1154.45 81.0676 1167.21 78.6129 1182.32 78.6129V75.4854C1166.88 75.4854 1153.65 77.9915 1142.67 83.0711L1143.99 85.9092ZM1182.32 78.6129C1204.69 78.6129 1221.94 84.1056 1234.27 94.8937L1236.33 92.54C1223.26 81.1046 1205.19 75.4854 1182.32 75.4854V78.6129ZM1234.28 94.9016C1246.87 105.751 1254.44 119.886 1256.97 137.395L1260.07 136.948C1257.44 118.741 1249.52 103.906 1236.32 92.5322L1234.28 94.9016ZM1258.52 135.608H1199.88V138.736H1258.52V135.608ZM1201.41 136.84C1200.35 131.977 1198.1 128.149 1194.57 125.504L1192.69 128.006C1195.52 130.122 1197.43 133.239 1198.35 137.504L1201.41 136.84ZM1194.62 125.541C1191.09 122.673 1186.44 121.322 1180.83 121.322V124.449C1185.94 124.449 1189.83 125.677 1192.65 127.968L1194.62 125.541ZM1180.83 121.322C1177.28 121.322 1174.3 122.05 1172.14 123.734L1174.06 126.203C1175.46 125.11 1177.65 124.449 1180.83 124.449V121.322ZM1172.23 123.668C1169.92 125.21 1168.85 127.643 1168.85 130.624H1171.98C1171.98 128.446 1172.7 127.109 1173.96 126.27L1172.23 123.668ZM1168.85 130.624C1168.85 132.661 1169.49 134.498 1170.76 136.071C1172.01 137.618 1173.82 138.842 1176.05 139.8L1177.28 136.925C1175.35 136.098 1174.03 135.138 1173.2 134.106C1172.38 133.099 1171.98 131.96 1171.98 130.624H1168.85ZM1176.11 139.824C1180.41 141.461 1187.17 143.168 1196.31 144.957L1196.91 141.888C1187.8 140.105 1181.26 138.438 1177.22 136.901L1176.11 139.824ZM1196.31 144.957C1208.36 147.328 1218.5 149.989 1226.74 152.931L1227.79 149.986C1219.36 146.975 1209.06 144.279 1196.91 141.888L1196.31 144.957ZM1226.74 152.931C1234.79 155.806 1241.81 160.793 1247.79 167.94L1250.19 165.931C1243.88 158.395 1236.41 153.063 1227.79 149.986L1226.74 152.931ZM1247.81 167.956C1253.64 174.73 1256.66 184.244 1256.66 196.699H1259.78C1259.78 183.757 1256.65 173.428 1250.18 165.915L1247.81 167.956ZM1256.66 196.699C1256.66 206.295 1253.88 214.902 1248.32 222.569L1250.85 224.405C1256.8 216.197 1259.78 206.946 1259.78 196.699H1256.66ZM1248.32 222.569C1242.77 230.229 1234.69 236.319 1223.98 240.795L1225.19 243.68C1236.31 239.029 1244.9 232.618 1250.85 224.405L1248.32 222.569ZM1223.97 240.799C1213.49 245.263 1201.11 247.52 1186.79 247.52V250.647C1201.43 250.647 1214.25 248.34 1225.2 243.676L1223.97 240.799Z" fill="white" fill-opacity="0.1"/>
</svg>
