<svg width="829" height="250" viewBox="0 0 829 250" fill="none" xmlns="http://www.w3.org/2000/svg">
<path d="M26.8235 231.523L25.9001 232.785L25.9088 232.791L25.9175 232.797L26.8235 231.523ZM0.333839 179.436V177.873H-1.32799L-1.22702 179.531L0.333839 179.436ZM70.5762 179.436L72.1347 179.309L72.017 177.873H70.5762V179.436ZM95.5777 195.211L96.4451 196.512L96.4565 196.505L96.4678 196.497L95.5777 195.211ZM91.4108 175.269L90.6136 176.615L90.6323 176.626L90.6514 176.636L91.4108 175.269ZM66.4093 164.555L65.8888 166.029L65.8915 166.03L66.4093 164.555ZM32.7763 150.566L32.0519 151.951L32.0582 151.955L32.0646 151.958L32.7763 150.566ZM10.1559 130.624L11.4205 129.704L10.1559 130.624ZM0.929113 96.9909L2.4927 97.0135L2.49286 97.0022V96.9909H0.929113ZM11.3464 62.1673L10.0862 61.2415L10.0829 61.246L11.3464 62.1673ZM40.2172 40.1422L39.6324 38.6919L39.6242 38.6952L40.2172 40.1422ZM142.902 50.5595L141.933 51.7869L141.941 51.793L142.902 50.5595ZM167.011 100.86V102.424H168.633L168.573 100.803L167.011 100.86ZM95.8754 100.86L94.3125 100.912L94.3629 102.424H95.8754V100.86ZM74.4455 87.1689L75.5512 88.2746L75.5803 88.2455L75.6078 88.215L74.4455 87.1689ZM79.5053 106.813L78.6858 108.145L78.7154 108.163L78.7459 108.18L79.5053 106.813ZM104.804 117.825L104.25 119.288L104.258 119.291L104.804 117.825ZM137.545 132.112L136.807 133.491L136.814 133.494L136.82 133.498L137.545 132.112ZM160.165 151.161L158.932 152.123L160.165 151.161ZM160.165 216.641L161.49 217.472L161.497 217.461L160.165 216.641ZM132.485 240.452L131.813 239.04L132.485 240.452ZM89.3273 247.52C64.3711 247.52 43.875 241.725 27.7295 230.248L25.9175 232.797C42.7106 244.735 63.8837 250.647 89.3273 250.647V247.52ZM27.747 230.261C11.9047 218.669 3.25965 201.766 1.8947 179.341L-1.22702 179.531C0.18597 202.745 9.20072 220.566 25.9001 232.785L27.747 230.261ZM0.333839 181H70.5762V177.873H0.333839V181ZM69.0177 179.564C69.5282 185.792 71.1773 190.712 74.1675 194.09C77.203 197.519 81.4386 199.156 86.6486 199.156V196.028C82.1358 196.028 78.8313 194.64 76.5093 192.017C74.142 189.343 72.6163 185.184 72.1347 179.309L69.0177 179.564ZM86.6486 199.156C90.4522 199.156 93.75 198.309 96.4451 196.512L94.7103 193.91C92.6433 195.288 89.9883 196.028 86.6486 196.028V199.156ZM96.4678 196.497C99.5327 194.375 101.011 191.177 101.011 187.175H97.8833C97.8833 190.316 96.7818 192.476 94.6876 193.925L96.4678 196.497ZM101.011 187.175C101.011 181.505 97.8864 177.078 92.1702 173.902L90.6514 176.636C95.6501 179.413 97.8833 182.924 97.8833 187.175H101.011ZM92.208 173.924C86.7144 170.669 78.2628 167.056 66.927 163.079L65.8915 166.03C77.1762 169.99 85.3923 173.521 90.6136 176.615L92.208 173.924ZM66.9297 163.08C53.4772 158.332 42.3353 153.695 33.488 149.173L32.0646 151.958C41.0755 156.564 52.3556 161.253 65.8888 166.029L66.9297 163.08ZM33.5007 149.18C25.0035 144.738 17.6422 138.259 11.4205 129.704L8.8912 131.544C15.3688 140.45 23.0877 147.266 32.0519 151.951L33.5007 149.18ZM11.4205 129.704C5.31778 121.313 2.29785 110.458 2.4927 97.0135L-0.634471 96.9682C-0.836469 110.906 2.29476 122.474 8.8912 131.544L11.4205 129.704ZM2.49286 96.9909C2.49286 83.5754 5.89045 72.304 12.6099 63.0887L10.0829 61.246C2.91265 71.0795 -0.634635 83.0238 -0.634635 96.9909H2.49286ZM12.6066 63.0932C19.5654 53.6216 28.9492 46.4502 40.8102 41.5891L39.6242 38.6952C27.2774 43.7554 17.414 51.2675 10.0862 61.2415L12.6066 63.0932ZM40.802 41.5925C52.8925 36.7173 66.4804 34.265 81.5888 34.265V31.1375C66.1398 31.1375 52.1466 33.6459 39.6324 38.6919L40.802 41.5925ZM81.5888 34.265C107.152 34.265 127.21 40.1635 141.933 51.7868L143.871 49.3321C128.433 37.1445 107.616 31.1375 81.5888 31.1375V34.265ZM141.941 51.793C156.81 63.379 164.669 79.6899 165.448 100.918L168.573 100.803C167.765 78.7739 159.552 61.5509 143.863 49.326L141.941 51.793ZM167.011 99.2964H95.8754V102.424H167.011V99.2964ZM97.4382 100.808C97.2336 94.6698 95.6937 89.9048 92.4749 86.9159L90.3467 89.2077C92.6838 91.3778 94.1202 95.1451 94.3125 100.912L97.4382 100.808ZM92.4749 86.9159C89.3931 84.0542 85.634 82.6287 81.2911 82.6287V85.7562C84.8853 85.7562 87.8726 86.9103 90.3467 89.2077L92.4749 86.9159ZM81.2911 82.6287C78.0903 82.6287 75.3789 83.7941 73.2832 86.1228L75.6078 88.215C77.0837 86.5751 78.9361 85.7562 81.2911 85.7562V82.6287ZM73.3397 86.0631C71.1727 88.2302 70.203 91.2632 70.203 94.9074H73.3305C73.3305 91.8052 74.1467 89.6792 75.5512 88.2746L73.3397 86.0631ZM70.203 94.9074C70.203 100.363 73.2081 104.774 78.6858 108.145L80.3249 105.481C75.4844 102.502 73.3305 98.9767 73.3305 94.9074H70.203ZM78.7459 108.18C84.2062 111.213 92.7261 114.917 104.25 119.288L105.359 116.363C93.8655 112.004 85.5194 108.365 80.2647 105.446L78.7459 108.18ZM104.258 119.291C117.514 124.237 128.358 128.971 136.807 133.491L138.282 130.733C129.667 126.125 118.684 121.335 105.351 116.36L104.258 119.291ZM136.82 133.498C145.344 137.953 152.713 144.155 158.932 152.123L161.398 150.199C154.918 141.896 147.207 135.398 138.269 130.726L136.82 133.498ZM158.932 152.123C165.028 159.933 168.126 169.794 168.126 181.817H171.253C171.253 169.236 168.001 158.659 161.398 150.199L158.932 152.123ZM168.126 181.817C168.126 194.445 165.021 205.766 158.833 215.821L161.497 217.461C168.008 206.88 171.253 194.985 171.253 181.817H168.126ZM158.84 215.81C152.668 225.648 143.682 233.397 131.813 239.04L133.156 241.864C145.495 235.998 154.963 227.874 161.49 217.472L158.84 215.81ZM131.813 239.04C119.964 244.673 105.818 247.52 89.3273 247.52V250.647C106.172 250.647 120.798 247.74 133.156 241.864L131.813 239.04ZM300.352 247L299.022 247.822L299.48 248.564H300.352V247ZM258.98 180.032L260.311 179.21L257.417 174.525V180.032H258.98ZM258.98 247V248.564H260.544V247H258.98ZM192.905 247H191.341V248.564H192.905V247ZM192.905 26.7485V25.1848H191.341V26.7485H192.905ZM258.98 26.7485H260.544V25.1848H258.98V26.7485ZM258.98 141.934H257.417V147.089L260.281 142.803L258.98 141.934ZM300.947 79.1327V77.5689H300.112L299.647 78.2638L300.947 79.1327ZM377.738 79.1327L378.993 80.0652L380.848 77.5689H377.738V79.1327ZM314.936 163.662L313.681 162.729L312.975 163.679L313.698 164.617L314.936 163.662ZM379.226 247V248.564H382.407L380.464 246.045L379.226 247ZM301.682 246.178L260.311 179.21L257.65 180.854L299.022 247.822L301.682 246.178ZM257.417 180.032V247H260.544V180.032H257.417ZM258.98 245.436H192.905V248.564H258.98V245.436ZM194.469 247V26.7485H191.341V247H194.469ZM192.905 28.3123H258.98V25.1848H192.905V28.3123ZM257.417 26.7485V141.934H260.544V26.7485H257.417ZM260.281 142.803L302.247 80.0015L299.647 78.2638L257.68 141.065L260.281 142.803ZM300.947 80.6964H377.738V77.5689H300.947V80.6964ZM376.482 78.2001L313.681 162.729L316.191 164.594L378.993 80.0652L376.482 78.2001ZM313.698 164.617L377.988 247.955L380.464 246.045L316.174 162.706L313.698 164.617ZM379.226 245.436H300.352V248.564H379.226V245.436ZM399.698 56.5122L400.735 55.3416L399.698 56.5122ZM399.698 9.7832L400.735 10.9538L400.744 10.9456L400.753 10.9373L399.698 9.7832ZM454.761 9.7832L453.705 10.9373L453.715 10.9456L453.724 10.9538L454.761 9.7832ZM454.761 56.5122L453.724 55.3416L454.761 56.5122ZM460.118 79.1327H461.682V77.5689H460.118V79.1327ZM460.118 247V248.564H461.682V247H460.118ZM394.043 247H392.479V248.564H394.043V247ZM394.043 79.1327V77.5689H392.479V79.1327H394.043ZM427.378 64.1752C416.156 64.1752 407.329 61.1826 400.735 55.3416L398.661 57.6828C405.956 64.1442 415.583 67.3027 427.378 67.3027V64.1752ZM400.735 55.3416C394.127 49.489 390.844 42.1776 390.844 33.2965H387.717C387.717 43.0674 391.379 51.2331 398.661 57.6828L400.735 55.3416ZM390.844 33.2965C390.844 24.2062 394.135 16.7993 400.735 10.9538L398.661 8.6126C391.371 15.0695 387.717 23.3381 387.717 33.2965H390.844ZM400.753 10.9373C407.349 4.90702 416.168 1.82256 427.378 1.82256V-1.30493C415.57 -1.30493 405.937 1.96021 398.643 8.62911L400.753 10.9373ZM427.378 1.82256C438.381 1.82256 447.105 4.90247 453.705 10.9373L455.816 8.62911C448.527 1.96476 438.996 -1.30493 427.378 -1.30493V1.82256ZM453.724 10.9538C460.323 16.7993 463.614 24.2062 463.614 33.2965H466.742C466.742 23.3381 463.087 15.0695 455.797 8.6126L453.724 10.9538ZM463.614 33.2965C463.614 42.1776 460.332 49.489 453.724 55.3416L455.797 57.6828C463.079 51.2331 466.742 43.0674 466.742 33.2965H463.614ZM453.724 55.3416C447.124 61.1869 438.394 64.1752 427.378 64.1752V67.3027C438.983 67.3027 448.507 64.1399 455.797 57.6828L453.724 55.3416ZM458.554 79.1327V247H461.682V79.1327H458.554ZM460.118 245.436H394.043V248.564H460.118V245.436ZM395.606 247V79.1327H392.479V247H395.606ZM394.043 80.6964H460.118V77.5689H394.043V80.6964ZM556.036 26.7485H557.6V25.1848H556.036V26.7485ZM556.036 247V248.564H557.6V247H556.036ZM489.961 247H488.397V248.564H489.961V247ZM489.961 26.7485V25.1848H488.397V26.7485H489.961ZM554.473 26.7485V247H557.6V26.7485H554.473ZM556.036 245.436H489.961V248.564H556.036V245.436ZM491.525 247V26.7485H488.397V247H491.525ZM489.961 28.3123H556.036V25.1848H489.961V28.3123ZM651.954 26.7485H653.518V25.1848H651.954V26.7485ZM651.954 247V248.564H653.518V247H651.954ZM585.879 247H584.315V248.564H585.879V247ZM585.879 26.7485V25.1848H584.315V26.7485H585.879ZM650.391 26.7485V247H653.518V26.7485H650.391ZM651.954 245.436H585.879V248.564H651.954V245.436ZM587.443 247V26.7485H584.315V247H587.443ZM585.879 28.3123H651.954V25.1848H585.879V28.3123ZM714.24 241.345L713.627 242.783L713.635 242.787L714.24 241.345ZM673.166 188.961V187.397H671.461L671.608 189.095L673.166 188.961ZM736.562 188.961L738.107 188.714L737.896 187.397H736.562V188.961ZM742.813 199.973L741.911 201.251L741.928 201.263L741.945 201.274L742.813 199.973ZM764.243 201.462L765.14 202.743L765.181 202.714L765.22 202.683L764.243 201.462ZM739.836 182.413L740.143 180.879L740.138 180.878L739.836 182.413ZM709.775 174.674L709.247 176.146L709.259 176.15L709.775 174.674ZM689.238 160.388L688.048 161.402L688.057 161.412L688.066 161.422L689.238 160.388ZM688.643 104.432L687.332 103.579L687.328 103.586L688.643 104.432ZM713.049 84.4901L713.684 85.9191L713.695 85.9142L713.706 85.9092L713.049 84.4901ZM805.019 93.7169L803.989 94.8938L803.998 94.9016L805.019 93.7169ZM828.235 137.172V138.736H830.041L829.782 136.948L828.235 137.172ZM769.6 137.172L768.072 137.504L768.34 138.736H769.6V137.172ZM763.35 126.755L762.364 127.968L762.387 127.987L762.412 128.006L763.35 126.755ZM742.813 124.969L743.68 126.27L743.728 126.238L743.773 126.203L742.813 124.969ZM746.385 138.362L745.769 139.8L745.798 139.812L745.828 139.824L746.385 138.362ZM766.326 143.422L766.628 141.888L766.626 141.888L766.326 143.422ZM796.983 151.458L796.457 152.931L796.983 151.458ZM818.71 166.936L817.512 167.94L817.518 167.948L817.525 167.956L818.71 166.936ZM819.306 223.487L820.572 224.405L819.306 223.487ZM794.304 242.238L793.701 240.795L793.691 240.799L794.304 242.238ZM756.504 247.52C740.799 247.52 726.923 244.968 714.844 239.903L713.635 242.787C726.162 248.04 740.461 250.647 756.504 250.647V247.52ZM714.853 239.906C702.959 234.837 693.56 227.844 686.6 218.951L684.137 220.879C691.464 230.241 701.313 237.535 713.627 242.783L714.853 239.906ZM686.6 218.951C679.643 210.062 675.69 200.032 674.724 188.826L671.608 189.095C672.626 200.907 676.808 211.513 684.137 220.879L686.6 218.951ZM673.166 190.525H736.562V187.397H673.166V190.525ZM735.018 189.208C735.863 194.488 738.121 198.576 741.911 201.251L743.715 198.696C740.758 196.609 738.849 193.355 738.107 188.714L735.018 189.208ZM741.945 201.274C745.831 203.865 750.617 205.109 756.207 205.109V201.981C751.081 201.981 746.938 200.844 743.68 198.672L741.945 201.274ZM756.207 205.109C759.778 205.109 762.807 204.375 765.14 202.743L763.346 200.18C761.71 201.326 759.381 201.981 756.207 201.981V205.109ZM765.22 202.683C767.506 200.853 768.783 198.545 768.783 195.806H765.655C765.655 197.433 764.948 198.895 763.266 200.24L765.22 202.683ZM768.783 195.806C768.783 193.614 768.17 191.654 766.891 190.01C765.626 188.384 763.794 187.173 761.525 186.309L760.412 189.232C762.31 189.955 763.603 190.877 764.422 191.93C765.227 192.964 765.655 194.228 765.655 195.806H768.783ZM761.525 186.309C757.226 184.671 750.07 182.865 740.143 180.879L739.53 183.946C749.445 185.929 756.377 187.694 760.412 189.232L761.525 186.309ZM740.138 180.878C728.077 178.506 718.135 175.943 710.292 173.198L709.259 176.15C717.29 178.961 727.388 181.558 739.535 183.947L740.138 180.878ZM710.303 173.202C702.836 170.522 696.206 165.921 690.411 159.353L688.066 161.422C694.176 168.347 701.237 173.271 709.247 176.146L710.303 173.202ZM690.428 159.373C684.987 152.994 682.17 144.072 682.17 132.41H679.043C679.043 144.559 681.981 154.289 688.048 161.402L690.428 159.373ZM682.17 132.41C682.17 122.378 684.77 113.348 689.958 105.277L687.328 103.586C681.801 112.183 679.043 121.805 679.043 132.41H682.17ZM689.953 105.285C695.321 97.0426 703.202 90.5777 713.684 85.9191L712.414 83.0612C701.466 87.927 693.077 94.7565 687.333 103.579L689.953 105.285ZM713.706 85.9092C724.164 81.0676 736.924 78.6129 752.04 78.6129V75.4854C736.598 75.4854 723.364 77.9915 712.392 83.0711L713.706 85.9092ZM752.04 78.6129C774.412 78.6129 791.66 84.1056 803.989 94.8937L806.049 92.54C792.98 81.1046 774.908 75.4854 752.04 75.4854V78.6129ZM803.998 94.9016C816.592 105.751 824.158 119.886 826.687 137.395L829.782 136.948C827.152 118.741 819.241 103.906 806.04 92.5322L803.998 94.9016ZM828.235 135.608H769.6V138.736H828.235V135.608ZM771.128 136.84C770.071 131.977 767.815 128.149 764.288 125.504L762.412 128.006C765.234 130.122 767.145 133.239 768.072 137.504L771.128 136.84ZM764.336 125.541C760.806 122.673 756.156 121.322 750.551 121.322V124.449C755.662 124.449 759.544 125.677 762.364 127.968L764.336 125.541ZM750.551 121.322C746.994 121.322 744.019 122.05 741.853 123.734L743.773 126.203C745.178 125.11 747.363 124.449 750.551 124.449V121.322ZM741.945 123.668C739.633 125.21 738.57 127.643 738.57 130.624H741.698C741.698 128.446 742.422 127.109 743.68 126.27L741.945 123.668ZM738.57 130.624C738.57 132.661 739.21 134.498 740.48 136.071C741.73 137.618 743.533 138.842 745.769 139.8L747 136.925C745.069 136.098 743.747 135.138 742.913 134.106C742.1 133.099 741.698 131.96 741.698 130.624H738.57ZM745.828 139.824C750.127 141.461 756.884 143.168 766.026 144.957L766.626 141.888C757.514 140.105 750.976 138.438 746.941 136.901L745.828 139.824ZM766.024 144.957C778.079 147.328 788.218 149.989 796.457 152.931L797.509 149.986C789.08 146.975 778.781 144.279 766.628 141.888L766.024 144.957ZM796.457 152.931C804.507 155.806 811.524 160.793 817.512 167.94L819.909 165.931C813.594 158.395 806.126 153.063 797.509 149.986L796.457 152.931ZM817.525 167.956C823.358 174.73 826.373 184.244 826.373 196.699H829.501C829.501 183.757 826.365 173.428 819.895 165.915L817.525 167.956ZM826.373 196.699C826.373 206.295 823.598 214.902 818.04 222.569L820.572 224.405C826.522 216.197 829.501 206.946 829.501 196.699H826.373ZM818.04 222.569C812.486 230.229 804.404 236.319 793.701 240.795L794.907 243.68C806.031 239.029 814.617 232.618 820.572 224.405L818.04 222.569ZM793.691 240.799C783.211 245.263 770.828 247.52 756.504 247.52V250.647C771.15 250.647 783.967 248.34 794.917 243.676L793.691 240.799Z" fill="white" fill-opacity="0.1"/>
</svg>
